<?xml version="1.0" encoding="UTF-8" standalone="no"?>
<!-- Created with Inkscape (http://www.inkscape.org/) -->

<svg
   width="299"
   height="189"
   viewBox="0 0 79.110415 50.006251"
   version="1.1"
   id="svg5"
   sodipodi:docname="metal-texture.svg"
   inkscape:version="1.1 (c4e8f9ed74, 2021-05-24)"
   xmlns:inkscape="http://www.inkscape.org/namespaces/inkscape"
   xmlns:sodipodi="http://sodipodi.sourceforge.net/DTD/sodipodi-0.dtd"
   xmlns:xlink="http://www.w3.org/1999/xlink"
   xmlns="http://www.w3.org/2000/svg"
   xmlns:svg="http://www.w3.org/2000/svg">
  <sodipodi:namedview
     id="namedview7"
     pagecolor="#ffffff"
     bordercolor="#666666"
     borderopacity="1.0"
     inkscape:pageshadow="2"
     inkscape:pageopacity="0.0"
     inkscape:pagecheckerboard="0"
     inkscape:document-units="px"
     showgrid="false"
     units="px"
     width="300px"
     inkscape:zoom="0.99729016"
     inkscape:cx="132.86003"
     inkscape:cy="105.28531"
     inkscape:window-width="1600"
     inkscape:window-height="823"
     inkscape:window-x="0"
     inkscape:window-y="890"
     inkscape:window-maximized="1"
     inkscape:current-layer="layer3">
    <inkscape:grid
       type="xygrid"
       id="grid21286" />
  </sodipodi:namedview>
  <defs
     id="defs2">
    <filter
       style="color-interpolation-filters:sRGB;"
       inkscape:label="Drop Shadow"
       id="filter4695"
       x="0"
       y="0"
       width="1"
       height="1.0071442">
      <feFlood
         flood-opacity="0.8"
         flood-color="rgb(0,0,0)"
         result="flood"
         id="feFlood4685" />
      <feComposite
         in="flood"
         in2="SourceGraphic"
         operator="in"
         result="composite1"
         id="feComposite4687" />
      <feGaussianBlur
         in="composite1"
         stdDeviation="0.1"
         result="blur"
         id="feGaussianBlur4689" />
      <feOffset
         dx="-1"
         dy="2.3"
         result="offset"
         id="feOffset4691" />
      <feComposite
         in="SourceGraphic"
         in2="offset"
         operator="over"
         result="composite2"
         id="feComposite4693" />
    </filter>
  </defs>
  <g
     inkscape:label="Layer 1"
     inkscape:groupmode="layer"
     id="layer1"
     sodipodi:insensitive="true">
    <rect
       style="opacity:1;fill:#222222;fill-opacity:1;stroke-width:0.0931237"
       id="rect1887"
       width="79.375"
       height="0.39687499"
       x="0"
       y="1.110223e-16" />
    <rect
       style="opacity:1;fill:#363636;fill-opacity:1;stroke-width:0.0931228"
       id="rect1887-3"
       width="79.375"
       height="0.39687499"
       x="0"
       y="0.39687499" />
    <rect
       style="fill:#222222;fill-opacity:1;stroke-width:0.0931237"
       id="rect1887-7"
       width="79.375"
       height="0.39687499"
       x="3.8146973e-06"
       y="0.79374999" />
    <rect
       style="fill:#363636;fill-opacity:1;stroke-width:0.0931228"
       id="rect1887-3-7"
       width="79.375"
       height="0.39687499"
       x="3.8146973e-06"
       y="1.190625" />
    <rect
       style="fill:#222222;fill-opacity:1;stroke-width:0.0931237"
       id="rect1887-6"
       width="79.375"
       height="0.39687499"
       x="3.8146973e-06"
       y="1.5875" />
    <rect
       style="fill:#363636;fill-opacity:1;stroke-width:0.0931228"
       id="rect1887-3-4"
       width="79.375"
       height="0.39687499"
       x="3.8146973e-06"
       y="1.9843749" />
    <rect
       style="fill:#222222;fill-opacity:1;stroke-width:0.0931237"
       id="rect1887-7-3"
       width="79.375"
       height="0.39687499"
       x="7.6293945e-06"
       y="2.3812497" />
    <rect
       style="fill:#363636;fill-opacity:1;stroke-width:0.0931228"
       id="rect1887-3-7-0"
       width="79.375"
       height="0.39687499"
       x="7.6293945e-06"
       y="2.7781246" />
    <rect
       style="fill:#222222;fill-opacity:1;stroke-width:0.0931237"
       id="rect1887-30"
       width="79.375"
       height="0.39687499"
       x="8.5830688e-06"
       y="3.1749995" />
    <rect
       style="fill:#363636;fill-opacity:1;stroke-width:0.0931228"
       id="rect1887-3-9"
       width="79.375"
       height="0.39687499"
       x="8.5830688e-06"
       y="3.5718744" />
    <rect
       style="fill:#222222;fill-opacity:1;stroke-width:0.0931237"
       id="rect1887-7-2"
       width="79.375"
       height="0.39687499"
       x="1.2397766e-05"
       y="3.9687493" />
    <rect
       style="fill:#363636;fill-opacity:1;stroke-width:0.0931228"
       id="rect1887-3-7-5"
       width="79.375"
       height="0.39687499"
       x="1.2397766e-05"
       y="4.3656244" />
    <rect
       style="fill:#222222;fill-opacity:1;stroke-width:0.0931237"
       id="rect1887-6-4"
       width="79.375"
       height="0.39687499"
       x="1.2397766e-05"
       y="4.7624998" />
    <rect
       style="fill:#363636;fill-opacity:1;stroke-width:0.0931228"
       id="rect1887-3-4-0"
       width="79.375"
       height="0.39687499"
       x="1.2397766e-05"
       y="5.1593742" />
    <rect
       style="fill:#222222;fill-opacity:1;stroke-width:0.0931237"
       id="rect1887-7-3-5"
       width="79.375"
       height="0.39687499"
       x="1.6212463e-05"
       y="5.5562487" />
    <rect
       style="fill:#363636;fill-opacity:1;stroke-width:0.0931228"
       id="rect1887-3-7-0-9"
       width="79.375"
       height="0.39687499"
       x="1.6212463e-05"
       y="5.953124" />
    <rect
       style="fill:#222222;fill-opacity:1;stroke-width:0.0931237"
       id="rect1887-4"
       width="79.375"
       height="0.39687499"
       x="1.2397766e-05"
       y="6.349999" />
    <rect
       style="fill:#363636;fill-opacity:1;stroke-width:0.0931228"
       id="rect1887-3-6"
       width="79.375"
       height="0.39687499"
       x="1.2397766e-05"
       y="6.7468743" />
    <rect
       style="fill:#222222;fill-opacity:1;stroke-width:0.0931237"
       id="rect1887-7-9"
       width="79.375"
       height="0.39687499"
       x="1.6212463e-05"
       y="7.1437497" />
    <rect
       style="fill:#363636;fill-opacity:1;stroke-width:0.0931228"
       id="rect1887-3-7-2"
       width="79.375"
       height="0.39687499"
       x="1.6212463e-05"
       y="7.5406232" />
    <rect
       style="fill:#222222;fill-opacity:1;stroke-width:0.0931237"
       id="rect1887-6-2"
       width="79.375"
       height="0.39687499"
       x="1.6212463e-05"
       y="7.9374986" />
    <rect
       style="fill:#363636;fill-opacity:1;stroke-width:0.0931228"
       id="rect1887-3-4-4"
       width="79.375"
       height="0.39687499"
       x="1.6212463e-05"
       y="8.3343735" />
    <rect
       style="fill:#222222;fill-opacity:1;stroke-width:0.0931237"
       id="rect1887-7-3-7"
       width="79.375"
       height="0.39687499"
       x="2.0027161e-05"
       y="8.7312489" />
    <rect
       style="fill:#363636;fill-opacity:1;stroke-width:0.0931228"
       id="rect1887-3-7-0-7"
       width="79.375"
       height="0.39687499"
       x="2.0027161e-05"
       y="9.1281223" />
    <rect
       style="fill:#222222;fill-opacity:1;stroke-width:0.0931237"
       id="rect1887-30-5"
       width="79.375"
       height="0.39687499"
       x="2.0980835e-05"
       y="9.5249977" />
    <rect
       style="fill:#363636;fill-opacity:1;stroke-width:0.0931228"
       id="rect1887-3-9-4"
       width="79.375"
       height="0.39687499"
       x="2.0980835e-05"
       y="9.9218731" />
    <rect
       style="fill:#222222;fill-opacity:1;stroke-width:0.0931237"
       id="rect1887-7-2-8"
       width="79.375"
       height="0.39687499"
       x="2.5749207e-05"
       y="10.318748" />
    <rect
       style="fill:#363636;fill-opacity:1;stroke-width:0.0931228"
       id="rect1887-3-7-5-1"
       width="79.375"
       height="0.39687499"
       x="2.5749207e-05"
       y="10.715624" />
    <rect
       style="fill:#222222;fill-opacity:1;stroke-width:0.0931237"
       id="rect1887-6-4-2"
       width="79.375"
       height="0.39687499"
       x="2.5749207e-05"
       y="11.112499" />
    <rect
       style="fill:#363636;fill-opacity:1;stroke-width:0.0931228"
       id="rect1887-3-4-0-8"
       width="79.375"
       height="0.39687499"
       x="2.5749207e-05"
       y="11.509373" />
    <rect
       style="fill:#222222;fill-opacity:1;stroke-width:0.0931237"
       id="rect1887-7-3-5-9"
       width="79.375"
       height="0.39687499"
       x="2.8610229e-05"
       y="11.906248" />
    <rect
       style="fill:#363636;fill-opacity:1;stroke-width:0.0931228"
       id="rect1887-3-7-0-9-3"
       width="79.375"
       height="0.39687499"
       x="2.8610229e-05"
       y="12.303123" />
    <rect
       style="fill:#222222;fill-opacity:1;stroke-width:0.0931237"
       id="rect1887-68"
       width="79.375"
       height="0.39687499"
       x="3.2424927e-05"
       y="12.699999" />
    <rect
       style="fill:#363636;fill-opacity:1;stroke-width:0.0931228"
       id="rect1887-3-0"
       width="79.375"
       height="0.39687499"
       x="3.2424927e-05"
       y="13.096874" />
    <rect
       style="fill:#222222;fill-opacity:1;stroke-width:0.0931237"
       id="rect1887-7-21"
       width="79.375"
       height="0.39687499"
       x="3.6239624e-05"
       y="13.49375" />
    <rect
       style="fill:#363636;fill-opacity:1;stroke-width:0.0931228"
       id="rect1887-3-7-05"
       width="79.375"
       height="0.39687499"
       x="3.6239624e-05"
       y="13.890625" />
    <rect
       style="fill:#222222;fill-opacity:1;stroke-width:0.0931237"
       id="rect1887-6-1"
       width="79.375"
       height="0.39687499"
       x="3.6239624e-05"
       y="14.2875" />
    <rect
       style="fill:#363636;fill-opacity:1;stroke-width:0.0931228"
       id="rect1887-3-4-1"
       width="79.375"
       height="0.39687499"
       x="3.6239624e-05"
       y="14.684374" />
    <rect
       style="fill:#222222;fill-opacity:1;stroke-width:0.0931237"
       id="rect1887-7-3-0"
       width="79.375"
       height="0.39687499"
       x="4.0054321e-05"
       y="15.081249" />
    <rect
       style="fill:#363636;fill-opacity:1;stroke-width:0.0931228"
       id="rect1887-3-7-0-8"
       width="79.375"
       height="0.39687499"
       x="4.0054321e-05"
       y="15.478125" />
    <rect
       style="fill:#222222;fill-opacity:1;stroke-width:0.0931237"
       id="rect1887-30-50"
       width="79.375"
       height="0.39687499"
       x="4.1007996e-05"
       y="15.875" />
    <rect
       style="fill:#363636;fill-opacity:1;stroke-width:0.0931228"
       id="rect1887-3-9-6"
       width="79.375"
       height="0.39687499"
       x="4.1007996e-05"
       y="16.271873" />
    <rect
       style="fill:#222222;fill-opacity:1;stroke-width:0.0931237"
       id="rect1887-7-2-4"
       width="79.375"
       height="0.39687499"
       x="4.4822693e-05"
       y="16.668749" />
    <rect
       style="fill:#363636;fill-opacity:1;stroke-width:0.0931228"
       id="rect1887-3-7-5-6"
       width="79.375"
       height="0.39687499"
       x="4.4822693e-05"
       y="17.065624" />
    <rect
       style="fill:#222222;fill-opacity:1;stroke-width:0.0931237"
       id="rect1887-6-4-25"
       width="79.375"
       height="0.39687499"
       x="4.4822693e-05"
       y="17.4625" />
    <rect
       style="fill:#363636;fill-opacity:1;stroke-width:0.0931228"
       id="rect1887-3-4-0-86"
       width="79.375"
       height="0.39687499"
       x="4.4822693e-05"
       y="17.859373" />
    <rect
       style="fill:#222222;fill-opacity:1;stroke-width:0.0931237"
       id="rect1887-7-3-5-2"
       width="79.375"
       height="0.39687499"
       x="4.863739e-05"
       y="18.256248" />
    <rect
       style="fill:#363636;fill-opacity:1;stroke-width:0.0931228"
       id="rect1887-3-7-0-9-8"
       width="79.375"
       height="0.39687499"
       x="4.863739e-05"
       y="18.653124" />
    <rect
       style="fill:#222222;fill-opacity:1;stroke-width:0.0931237"
       id="rect1887-47"
       width="79.375"
       height="0.39687499"
       x="4.863739e-05"
       y="19.049999" />
    <rect
       style="fill:#363636;fill-opacity:1;stroke-width:0.0931228"
       id="rect1887-3-2"
       width="79.375"
       height="0.39687499"
       x="4.863739e-05"
       y="19.446873" />
    <rect
       style="fill:#222222;fill-opacity:1;stroke-width:0.0931237"
       id="rect1887-7-4"
       width="79.375"
       height="0.39687499"
       x="5.2452087e-05"
       y="19.843748" />
    <rect
       style="fill:#363636;fill-opacity:1;stroke-width:0.0931228"
       id="rect1887-3-7-06"
       width="79.375"
       height="0.39687499"
       x="5.2452087e-05"
       y="20.240623" />
    <rect
       style="fill:#222222;fill-opacity:1;stroke-width:0.0931237"
       id="rect1887-6-29"
       width="79.375"
       height="0.39687499"
       x="5.2452087e-05"
       y="20.637499" />
    <rect
       style="fill:#363636;fill-opacity:1;stroke-width:0.0931228"
       id="rect1887-3-4-9"
       width="79.375"
       height="0.39687499"
       x="5.2452087e-05"
       y="21.034374" />
    <rect
       style="fill:#222222;fill-opacity:1;stroke-width:0.0931237"
       id="rect1887-7-3-08"
       width="79.375"
       height="0.39687499"
       x="5.6266785e-05"
       y="21.431248" />
    <rect
       style="fill:#363636;fill-opacity:1;stroke-width:0.0931228"
       id="rect1887-3-7-0-1"
       width="79.375"
       height="0.39687499"
       x="5.6266785e-05"
       y="21.828123" />
    <rect
       style="fill:#222222;fill-opacity:1;stroke-width:0.0931237"
       id="rect1887-30-3"
       width="79.375"
       height="0.39687499"
       x="5.6266785e-05"
       y="22.224998" />
    <rect
       style="fill:#363636;fill-opacity:1;stroke-width:0.0931228"
       id="rect1887-3-9-1"
       width="79.375"
       height="0.39687499"
       x="5.6266785e-05"
       y="22.621872" />
    <rect
       style="fill:#222222;fill-opacity:1;stroke-width:0.0931237"
       id="rect1887-7-2-1"
       width="79.375"
       height="0.39687499"
       x="6.0081482e-05"
       y="23.018747" />
    <rect
       style="fill:#363636;fill-opacity:1;stroke-width:0.0931228"
       id="rect1887-3-7-5-0"
       width="79.375"
       height="0.39687499"
       x="6.0081482e-05"
       y="23.415623" />
    <rect
       style="fill:#222222;fill-opacity:1;stroke-width:0.0931237"
       id="rect1887-6-4-3"
       width="79.375"
       height="0.39687499"
       x="6.0081482e-05"
       y="23.812498" />
    <rect
       style="fill:#363636;fill-opacity:1;stroke-width:0.0931228"
       id="rect1887-3-4-0-4"
       width="79.375"
       height="0.39687499"
       x="6.0081482e-05"
       y="24.209373" />
    <rect
       style="fill:#222222;fill-opacity:1;stroke-width:0.0931237"
       id="rect1887-7-3-5-0"
       width="79.375"
       height="0.39687499"
       x="6.3896179e-05"
       y="24.606247" />
    <rect
       style="fill:#363636;fill-opacity:1;stroke-width:0.0931228"
       id="rect1887-3-7-0-9-39"
       width="79.375"
       height="0.39687499"
       x="6.3896179e-05"
       y="25.003122" />
    <rect
       style="fill:#222222;fill-opacity:1;stroke-width:0.0931237"
       id="rect1887-4-1"
       width="79.375"
       height="0.39687499"
       x="6.0081482e-05"
       y="25.399998" />
    <rect
       style="fill:#363636;fill-opacity:1;stroke-width:0.0931228"
       id="rect1887-3-6-9"
       width="79.375"
       height="0.39687499"
       x="6.0081482e-05"
       y="25.796873" />
    <rect
       style="fill:#222222;fill-opacity:1;stroke-width:0.0931237"
       id="rect1887-7-9-6"
       width="79.375"
       height="0.39687499"
       x="6.3896179e-05"
       y="26.193748" />
    <rect
       style="fill:#363636;fill-opacity:1;stroke-width:0.0931228"
       id="rect1887-3-7-2-9"
       width="79.375"
       height="0.39687499"
       x="6.3896179e-05"
       y="26.590622" />
    <rect
       style="fill:#222222;fill-opacity:1;stroke-width:0.0931237"
       id="rect1887-6-2-3"
       width="79.375"
       height="0.39687499"
       x="6.3896179e-05"
       y="26.987497" />
    <rect
       style="fill:#363636;fill-opacity:1;stroke-width:0.0931228"
       id="rect1887-3-4-4-3"
       width="79.375"
       height="0.39687499"
       x="6.3896179e-05"
       y="27.384373" />
    <rect
       style="fill:#222222;fill-opacity:1;stroke-width:0.0931237"
       id="rect1887-7-3-7-8"
       width="79.375"
       height="0.39687499"
       x="6.7710876e-05"
       y="27.781248" />
    <rect
       style="fill:#363636;fill-opacity:1;stroke-width:0.0931228"
       id="rect1887-3-7-0-7-0"
       width="79.375"
       height="0.39687499"
       x="6.7710876e-05"
       y="28.178122" />
    <rect
       style="fill:#222222;fill-opacity:1;stroke-width:0.0931237"
       id="rect1887-30-5-5"
       width="79.375"
       height="0.39687499"
       x="6.9618225e-05"
       y="28.574997" />
    <rect
       style="fill:#363636;fill-opacity:1;stroke-width:0.0931228"
       id="rect1887-3-9-4-6"
       width="79.375"
       height="0.39687499"
       x="6.9618225e-05"
       y="28.971872" />
    <rect
       style="fill:#222222;fill-opacity:1;stroke-width:0.0931237"
       id="rect1887-7-2-8-6"
       width="79.375"
       height="0.39687499"
       x="7.3432922e-05"
       y="29.368748" />
    <rect
       style="fill:#363636;fill-opacity:1;stroke-width:0.0931228"
       id="rect1887-3-7-5-1-4"
       width="79.375"
       height="0.39687499"
       x="7.3432922e-05"
       y="29.765623" />
    <rect
       style="fill:#222222;fill-opacity:1;stroke-width:0.0931237"
       id="rect1887-6-4-2-0"
       width="79.375"
       height="0.39687499"
       x="7.3432922e-05"
       y="30.162498" />
    <rect
       style="fill:#363636;fill-opacity:1;stroke-width:0.0931228"
       id="rect1887-3-4-0-8-0"
       width="79.375"
       height="0.39687499"
       x="7.3432922e-05"
       y="30.559372" />
    <rect
       style="fill:#222222;fill-opacity:1;stroke-width:0.0931237"
       id="rect1887-7-3-5-9-4"
       width="79.375"
       height="0.39687499"
       x="7.724762e-05"
       y="30.956247" />
    <rect
       style="fill:#363636;fill-opacity:1;stroke-width:0.0931228"
       id="rect1887-3-7-0-9-3-6"
       width="79.375"
       height="0.39687499"
       x="7.724762e-05"
       y="31.353123" />
    <rect
       style="fill:#222222;fill-opacity:1;stroke-width:0.0931237"
       id="rect1887-68-2"
       width="79.375"
       height="0.39687499"
       x="8.1062317e-05"
       y="31.749998" />
    <rect
       style="fill:#363636;fill-opacity:1;stroke-width:0.0931228"
       id="rect1887-3-0-6"
       width="79.375"
       height="0.39687499"
       x="8.1062317e-05"
       y="32.146873" />
    <rect
       style="fill:#222222;fill-opacity:1;stroke-width:0.0931237"
       id="rect1887-7-21-7"
       width="79.375"
       height="0.39687499"
       x="8.4877014e-05"
       y="32.543747" />
    <rect
       style="fill:#363636;fill-opacity:1;stroke-width:0.0931228"
       id="rect1887-3-7-05-5"
       width="79.375"
       height="0.39687499"
       x="8.4877014e-05"
       y="32.940624" />
    <rect
       style="fill:#222222;fill-opacity:1;stroke-width:0.0931237"
       id="rect1887-6-1-6"
       width="79.375"
       height="0.39687499"
       x="8.4877014e-05"
       y="33.337502" />
    <rect
       style="fill:#363636;fill-opacity:1;stroke-width:0.0931228"
       id="rect1887-3-4-1-9"
       width="79.375"
       height="0.39687499"
       x="8.4877014e-05"
       y="33.734371" />
    <rect
       style="fill:#222222;fill-opacity:1;stroke-width:0.0931237"
       id="rect1887-7-3-0-8"
       width="79.375"
       height="0.39687499"
       x="8.8691711e-05"
       y="34.131248" />
    <rect
       style="fill:#363636;fill-opacity:1;stroke-width:0.0931228"
       id="rect1887-3-7-0-8-7"
       width="79.375"
       height="0.39687499"
       x="8.8691711e-05"
       y="34.528122" />
    <rect
       style="fill:#222222;fill-opacity:1;stroke-width:0.0931237"
       id="rect1887-30-50-2"
       width="79.375"
       height="0.39687499"
       x="8.8691711e-05"
       y="34.924999" />
    <rect
       style="fill:#363636;fill-opacity:1;stroke-width:0.0931228"
       id="rect1887-3-9-6-8"
       width="79.375"
       height="0.39687499"
       x="8.8691711e-05"
       y="35.321873" />
    <rect
       style="fill:#222222;fill-opacity:1;stroke-width:0.0931237"
       id="rect1887-7-2-4-2"
       width="79.375"
       height="0.39687499"
       x="9.2506409e-05"
       y="35.718746" />
    <rect
       style="fill:#363636;fill-opacity:1;stroke-width:0.0931228"
       id="rect1887-3-7-5-6-9"
       width="79.375"
       height="0.39687499"
       x="9.2506409e-05"
       y="36.115623" />
    <rect
       style="fill:#222222;fill-opacity:1;stroke-width:0.0931237"
       id="rect1887-6-4-25-9"
       width="79.375"
       height="0.39687499"
       x="9.2506409e-05"
       y="36.512497" />
    <rect
       style="fill:#363636;fill-opacity:1;stroke-width:0.0931228"
       id="rect1887-3-4-0-86-6"
       width="79.375"
       height="0.39687499"
       x="9.2506409e-05"
       y="36.90937" />
    <rect
       style="fill:#222222;fill-opacity:1;stroke-width:0.0931237"
       id="rect1887-7-3-5-2-0"
       width="79.375"
       height="0.39687499"
       x="9.6321106e-05"
       y="37.306248" />
    <rect
       style="fill:#363636;fill-opacity:1;stroke-width:0.0931228"
       id="rect1887-3-7-0-9-8-2"
       width="79.375"
       height="0.39687499"
       x="9.6321106e-05"
       y="37.703121" />
    <rect
       style="fill:#222222;fill-opacity:1;stroke-width:0.0931237"
       id="rect1887-76"
       width="79.375"
       height="0.39687499"
       x="9.9182129e-05"
       y="38.099995" />
    <rect
       style="fill:#363636;fill-opacity:1;stroke-width:0.0931228"
       id="rect1887-3-1"
       width="79.375"
       height="0.39687499"
       x="9.9182129e-05"
       y="38.496868" />
    <rect
       style="fill:#222222;fill-opacity:1;stroke-width:0.0931237"
       id="rect1887-7-32"
       width="79.375"
       height="0.39687499"
       x="0.00010299683"
       y="38.893745" />
    <rect
       style="fill:#363636;fill-opacity:1;stroke-width:0.0931228"
       id="rect1887-3-7-1"
       width="79.375"
       height="0.39687499"
       x="0.00010299683"
       y="39.290619" />
    <rect
       style="fill:#222222;fill-opacity:1;stroke-width:0.0931237"
       id="rect1887-6-5"
       width="79.375"
       height="0.39687499"
       x="0.00010299683"
       y="39.687492" />
    <rect
       style="fill:#363636;fill-opacity:1;stroke-width:0.0931228"
       id="rect1887-3-4-99"
       width="79.375"
       height="0.39687499"
       x="0.00010299683"
       y="40.08437" />
    <rect
       style="fill:#222222;fill-opacity:1;stroke-width:0.0931237"
       id="rect1887-7-3-1"
       width="79.375"
       height="0.39687499"
       x="0.00010681152"
       y="40.481243" />
    <rect
       style="fill:#363636;fill-opacity:1;stroke-width:0.0931228"
       id="rect1887-3-7-0-4"
       width="79.375"
       height="0.39687499"
       x="0.00010681152"
       y="40.87812" />
    <rect
       style="fill:#222222;fill-opacity:1;stroke-width:0.0931237"
       id="rect1887-30-9"
       width="79.375"
       height="0.39687499"
       x="0.00010681152"
       y="41.274994" />
    <rect
       style="fill:#363636;fill-opacity:1;stroke-width:0.0931228"
       id="rect1887-3-9-10"
       width="79.375"
       height="0.39687499"
       x="0.00010681152"
       y="41.671867" />
    <rect
       style="fill:#222222;fill-opacity:1;stroke-width:0.0931237"
       id="rect1887-7-2-7"
       width="79.375"
       height="0.39687499"
       x="0.00011062622"
       y="42.068741" />
    <rect
       style="fill:#363636;fill-opacity:1;stroke-width:0.0931228"
       id="rect1887-3-7-5-5"
       width="79.375"
       height="0.39687499"
       x="0.00011062622"
       y="42.465618" />
    <rect
       style="fill:#222222;fill-opacity:1;stroke-width:0.0931237"
       id="rect1887-6-4-8"
       width="79.375"
       height="0.39687499"
       x="0.00011062622"
       y="42.862495" />
    <rect
       style="fill:#363636;fill-opacity:1;stroke-width:0.0931228"
       id="rect1887-3-4-0-7"
       width="79.375"
       height="0.39687499"
       x="0.00011062622"
       y="43.259369" />
    <rect
       style="fill:#222222;fill-opacity:1;stroke-width:0.0931237"
       id="rect1887-7-3-5-04"
       width="79.375"
       height="0.39687499"
       x="0.00011444092"
       y="43.656242" />
    <rect
       style="fill:#363636;fill-opacity:1;stroke-width:0.0931228"
       id="rect1887-3-7-0-9-80"
       width="79.375"
       height="0.39687499"
       x="0.00011444092"
       y="44.053116" />
    <rect
       style="fill:#222222;fill-opacity:1;stroke-width:0.0931237"
       id="rect1887-4-4"
       width="79.375"
       height="0.39687499"
       x="0.00011062622"
       y="44.449993" />
    <rect
       style="fill:#363636;fill-opacity:1;stroke-width:0.0931228"
       id="rect1887-3-6-2"
       width="79.375"
       height="0.39687499"
       x="0.00011062622"
       y="44.84687" />
    <rect
       style="fill:#222222;fill-opacity:1;stroke-width:0.0931237"
       id="rect1887-7-9-9"
       width="79.375"
       height="0.39687499"
       x="0.00011444092"
       y="45.243744" />
    <rect
       style="fill:#363636;fill-opacity:1;stroke-width:0.0931228"
       id="rect1887-3-7-2-6"
       width="79.375"
       height="0.39687499"
       x="0.00011444092"
       y="45.640617" />
    <rect
       style="fill:#222222;fill-opacity:1;stroke-width:0.0931237"
       id="rect1887-6-2-1"
       width="79.375"
       height="0.39687499"
       x="0.00011444092"
       y="46.037491" />
    <rect
       style="fill:#363636;fill-opacity:1;stroke-width:0.0931228"
       id="rect1887-3-4-4-0"
       width="79.375"
       height="0.39687499"
       x="0.00011444092"
       y="46.434368" />
    <rect
       style="fill:#222222;fill-opacity:1;stroke-width:0.0931237"
       id="rect1887-7-3-7-4"
       width="79.375"
       height="0.39687499"
       x="0.00011825562"
       y="46.831245" />
    <rect
       style="fill:#363636;fill-opacity:1;stroke-width:0.0931228"
       id="rect1887-3-7-0-7-2"
       width="79.375"
       height="0.39687499"
       x="0.00011825562"
       y="47.228119" />
    <rect
       style="fill:#222222;fill-opacity:1;stroke-width:0.0931237"
       id="rect1887-30-5-2"
       width="79.375"
       height="0.39687499"
       x="0.00012207031"
       y="47.624992" />
    <rect
       style="fill:#363636;fill-opacity:1;stroke-width:0.0931228"
       id="rect1887-3-9-4-2"
       width="79.375"
       height="0.39687499"
       x="0.00012207031"
       y="48.021866" />
    <rect
       style="fill:#222222;fill-opacity:1;stroke-width:0.0931237"
       id="rect1887-7-2-8-0"
       width="79.375"
       height="0.39687499"
       x="0.00012588501"
       y="48.418743" />
    <rect
       style="fill:#363636;fill-opacity:1;stroke-width:0.0931228"
       id="rect1887-3-7-5-1-5"
       width="79.375"
       height="0.39687499"
       x="0.00012588501"
       y="48.81562" />
    <rect
       style="fill:#222222;fill-opacity:1;stroke-width:0.0931237"
       id="rect1887-6-4-2-5"
       width="79.375"
       height="0.39687499"
       x="0.00012588501"
       y="49.212494" />
    <rect
       style="fill:#363636;fill-opacity:1;stroke-width:0.0931228"
       id="rect1887-3-4-0-8-2"
       width="79.375"
       height="0.39687499"
       x="0.00012588501"
       y="49.609367" />
  </g>
  <g
     inkscape:groupmode="layer"
     id="layer3"
     inkscape:label="Layer 3">
    <path
       id="rect9401"
       style="fill:#a1a1a1;stroke-width:5.01158;fill-opacity:1;filter:url(#filter4695)"
       d="M -3.4648438 -5.25 L -6.9277344 0.75 L -3.4648438 6.75 L 0 6.75 L 0 0 L 6.4941406 0 L 3.4648438 -5.25 L -3.4648438 -5.25 z M 6.4941406 0 L 6.9277344 0.75 L 3.4648438 6.75 L 0 6.75 L 0 8.25 L 3.4648438 8.25 L 6.9277344 14.25 L 3.4648438 20.25 L 0 20.25 L 0 21.75 L 3.4648438 21.75 L 6.9277344 27.75 L 3.4648438 33.75 L 0 33.75 L 0 35.25 L 3.4648438 35.25 L 6.9277344 41.25 L 3.4648438 47.25 L 0 47.25 L 0 48.75 L 3.4648438 48.75 L 6.9277344 54.75 L 3.4648438 60.75 L 0 60.75 L 0 62.25 L 3.4648438 62.25 L 6.9277344 68.25 L 3.4648438 74.25 L 0 74.25 L 0 75.75 L 3.4648438 75.75 L 6.9277344 81.75 L 3.4648438 87.75 L 0 87.75 L 0 89.25 L 3.4648438 89.25 L 6.9277344 95.25 L 3.4648438 101.25 L 0 101.25 L 0 102.75 L 3.4648438 102.75 L 6.9277344 108.75 L 3.4648438 114.75 L 0 114.75 L 0 116.25 L 3.4648438 116.25 L 6.9277344 122.25 L 3.4648438 128.25 L 0 128.25 L 0 129.75 L 3.4648438 129.75 L 6.9277344 135.75 L 3.4648438 141.75 L 0 141.75 L 0 143.25 L 3.4648438 143.25 L 6.9277344 149.25 L 3.4648438 155.25 L 0 155.25 L 0 156.75 L 3.4648438 156.75 L 6.9277344 162.75 L 3.4648438 168.75 L 0 168.75 L 0 170.25 L 3.4648438 170.25 L 6.9277344 176.25 L 3.4648438 182.25 L 0 182.25 L 0 183.75 L 3.4648438 183.75 L 6.4941406 189 L 8.0351562 189 L 4.5722656 183 L 8.0351562 177 L 14.964844 177 L 18.427734 183 L 14.964844 189 L 16.505859 189 L 19.535156 183.75 L 26.464844 183.75 L 29.494141 189 L 31.035156 189 L 27.572266 183 L 31.035156 177 L 37.964844 177 L 41.427734 183 L 37.964844 189 L 39.505859 189 L 42.535156 183.75 L 49.464844 183.75 L 52.494141 189 L 54.035156 189 L 50.572266 183 L 54.035156 177 L 60.964844 177 L 64.427734 183 L 60.964844 189 L 62.505859 189 L 65.535156 183.75 L 72.464844 183.75 L 75.494141 189 L 77.035156 189 L 73.572266 183 L 77.035156 177 L 83.964844 177 L 87.427734 183 L 83.964844 189 L 85.505859 189 L 88.535156 183.75 L 95.464844 183.75 L 98.494141 189 L 100.03516 189 L 96.572266 183 L 100.03516 177 L 106.96484 177 L 110.42773 183 L 106.96484 189 L 108.50586 189 L 111.53516 183.75 L 118.46484 183.75 L 121.49414 189 L 123.03516 189 L 119.57227 183 L 123.03516 177 L 129.96484 177 L 133.42773 183 L 129.96484 189 L 131.50586 189 L 134.53711 183.75 L 141.46484 183.75 L 144.49414 189 L 146.03516 189 L 142.57227 183 L 146.03516 177 L 152.96484 177 L 156.42773 183 L 152.96484 189 L 154.50586 189 L 157.53516 183.75 L 164.46484 183.75 L 167.49414 189 L 169.03711 189 L 165.57227 183 L 169.03711 177 L 175.96484 177 L 179.42773 183 L 175.96484 189 L 177.50586 189 L 180.53516 183.75 L 187.46484 183.75 L 190.49414 189 L 192.03711 189 L 188.57227 183 L 192.03711 177 L 198.96484 177 L 202.42773 183 L 198.96484 189 L 200.50586 189 L 203.53711 183.75 L 210.46484 183.75 L 213.49414 189 L 215.03711 189 L 211.57227 183 L 215.03711 177 L 221.96484 177 L 225.42773 183 L 221.96484 189 L 223.50586 189 L 226.53711 183.75 L 233.46484 183.75 L 236.49414 189 L 238.03711 189 L 234.57227 183 L 238.03711 177 L 244.96484 177 L 248.42773 183 L 244.96484 189 L 246.50586 189 L 249.53711 183.75 L 256.46484 183.75 L 259.49414 189 L 261.03711 189 L 257.57227 183 L 261.03711 177 L 267.96484 177 L 271.42773 183 L 267.96484 189 L 269.50586 189 L 272.53711 183.75 L 279.46484 183.75 L 282.49414 189 L 284.03711 189 L 280.57227 183 L 284.03711 177 L 290.96484 177 L 294.42773 183 L 290.96484 189 L 292.50586 189 L 295.53711 183.75 L 299 183.75 L 299 182.25 L 295.53711 182.25 L 292.07227 176.25 L 295.53711 170.25 L 299 170.25 L 299 168.75 L 295.53711 168.75 L 292.07227 162.75 L 295.53711 156.75 L 299 156.75 L 299 155.25 L 295.53711 155.25 L 292.07227 149.25 L 295.53711 143.25 L 299 143.25 L 299 141.75 L 295.53711 141.75 L 292.07227 135.75 L 295.53711 129.75 L 299 129.75 L 299 128.25 L 295.53711 128.25 L 292.07227 122.25 L 295.53711 116.25 L 299 116.25 L 299 114.75 L 295.53711 114.75 L 292.07227 108.75 L 295.53711 102.75 L 299 102.75 L 299 101.25 L 295.53711 101.25 L 292.07227 95.25 L 295.53711 89.25 L 299 89.25 L 299 87.75 L 295.53711 87.75 L 292.07227 81.75 L 295.53711 75.75 L 299 75.75 L 299 74.25 L 295.53711 74.25 L 292.07227 68.25 L 295.53711 62.25 L 299 62.25 L 299 60.75 L 295.53711 60.75 L 292.07227 54.75 L 295.53711 48.75 L 299 48.75 L 299 47.25 L 295.53711 47.25 L 292.07227 41.25 L 295.53711 35.25 L 299 35.25 L 299 33.75 L 295.53711 33.75 L 292.07227 27.75 L 295.53711 21.75 L 299 21.75 L 299 20.25 L 295.53711 20.25 L 292.07227 14.25 L 295.53711 8.25 L 299 8.25 L 299 6.75 L 295.53711 6.75 L 292.07227 0.75 L 292.50586 0 L 282.49414 0 L 282.92773 0.75 L 279.46484 6.75 L 272.53711 6.75 L 269.07227 0.75 L 269.50586 0 L 259.49414 0 L 259.92773 0.75 L 256.46484 6.75 L 249.53711 6.75 L 246.07227 0.75 L 246.50586 0 L 236.49414 0 L 236.92773 0.75 L 233.46484 6.75 L 226.53711 6.75 L 223.07227 0.75 L 223.50586 0 L 213.49414 0 L 213.92773 0.75 L 210.46484 6.75 L 203.53711 6.75 L 200.07227 0.75 L 200.50586 0 L 190.49414 0 L 190.92773 0.75 L 187.46484 6.75 L 180.53711 6.75 L 177.07227 0.75 L 177.50586 0 L 167.49414 0 L 167.92773 0.75 L 164.46484 6.75 L 157.53711 6.75 L 154.07227 0.75 L 154.50586 0 L 144.49414 0 L 144.92773 0.75 L 141.46484 6.75 L 134.53711 6.75 L 131.07227 0.75 L 131.50586 0 L 121.49414 0 L 121.92773 0.75 L 118.46484 6.75 L 111.53516 6.75 L 108.07227 0.75 L 108.50586 0 L 98.494141 0 L 98.927734 0.75 L 95.464844 6.75 L 88.535156 6.75 L 85.072266 0.75 L 85.505859 0 L 75.494141 0 L 75.927734 0.75 L 72.464844 6.75 L 65.535156 6.75 L 62.072266 0.75 L 62.505859 0 L 52.494141 0 L 52.927734 0.75 L 49.464844 6.75 L 42.535156 6.75 L 39.072266 0.75 L 39.505859 0 L 29.494141 0 L 29.927734 0.75 L 26.464844 6.75 L 19.535156 6.75 L 16.072266 0.75 L 16.505859 0 L 6.4941406 0 z M 16.505859 0 L 29.494141 0 L 26.464844 -5.25 L 19.535156 -5.25 L 16.505859 0 z M 39.505859 0 L 52.494141 0 L 49.464844 -5.25 L 42.535156 -5.25 L 39.505859 0 z M 62.505859 0 L 75.494141 0 L 72.464844 -5.25 L 65.535156 -5.25 L 62.505859 0 z M 85.505859 0 L 98.494141 0 L 95.464844 -5.25 L 88.535156 -5.25 L 85.505859 0 z M 108.50586 0 L 121.49414 0 L 118.46484 -5.25 L 111.53516 -5.25 L 108.50586 0 z M 131.50586 0 L 144.49414 0 L 141.46484 -5.25 L 134.53711 -5.25 L 131.50586 0 z M 154.50586 0 L 167.49414 0 L 164.46484 -5.25 L 157.53711 -5.25 L 154.50586 0 z M 177.50586 0 L 190.49414 0 L 187.46484 -5.25 L 180.53711 -5.25 L 177.50586 0 z M 200.50586 0 L 213.49414 0 L 210.46484 -5.25 L 203.53711 -5.25 L 200.50586 0 z M 223.50586 0 L 236.49414 0 L 233.46484 -5.25 L 226.53711 -5.25 L 223.50586 0 z M 246.50586 0 L 259.49414 0 L 256.46484 -5.25 L 249.53711 -5.25 L 246.50586 0 z M 269.50586 0 L 282.49414 0 L 279.46484 -5.25 L 272.53711 -5.25 L 269.50586 0 z M 292.50586 0 L 299 0 L 299 6.75 L 302.46484 6.75 L 305.92773 0.75 L 302.46484 -5.25 L 295.53711 -5.25 L 292.50586 0 z M 299 8.25 L 299 20.25 L 302.46484 20.25 L 305.92773 14.25 L 302.46484 8.25 L 299 8.25 z M 299 21.75 L 299 33.75 L 302.46484 33.75 L 305.92773 27.75 L 302.46484 21.75 L 299 21.75 z M 299 35.25 L 299 47.25 L 302.46484 47.25 L 305.92773 41.25 L 302.46484 35.25 L 299 35.25 z M 299 48.75 L 299 60.75 L 302.46484 60.75 L 305.92773 54.75 L 302.46484 48.75 L 299 48.75 z M 299 62.25 L 299 74.25 L 302.46484 74.25 L 305.92773 68.25 L 302.46484 62.25 L 299 62.25 z M 299 75.75 L 299 87.75 L 302.46484 87.75 L 305.92773 81.75 L 302.46484 75.75 L 299 75.75 z M 299 89.25 L 299 101.25 L 302.46484 101.25 L 305.92773 95.25 L 302.46484 89.25 L 299 89.25 z M 299 102.75 L 299 114.75 L 302.46484 114.75 L 305.92773 108.75 L 302.46484 102.75 L 299 102.75 z M 299 116.25 L 299 128.25 L 302.46484 128.25 L 305.92773 122.25 L 302.46484 116.25 L 299 116.25 z M 299 129.75 L 299 141.75 L 302.46484 141.75 L 305.92773 135.75 L 302.46484 129.75 L 299 129.75 z M 299 143.25 L 299 155.25 L 302.46484 155.25 L 305.92773 149.25 L 302.46484 143.25 L 299 143.25 z M 299 156.75 L 299 168.75 L 302.46484 168.75 L 305.92773 162.75 L 302.46484 156.75 L 299 156.75 z M 299 170.25 L 299 182.25 L 302.46484 182.25 L 305.92773 176.25 L 302.46484 170.25 L 299 170.25 z M 299 183.75 L 299 189 L 292.50586 189 L 292.07227 189.75 L 295.53711 195.75 L 302.46484 195.75 L 305.92773 189.75 L 302.46484 183.75 L 299 183.75 z M 282.49414 189 L 269.50586 189 L 269.07227 189.75 L 272.53711 195.75 L 279.46484 195.75 L 282.92773 189.75 L 282.49414 189 z M 259.49414 189 L 246.50586 189 L 246.07227 189.75 L 249.53711 195.75 L 256.46484 195.75 L 259.92773 189.75 L 259.49414 189 z M 236.49414 189 L 223.50586 189 L 223.07227 189.75 L 226.53711 195.75 L 233.46484 195.75 L 236.92773 189.75 L 236.49414 189 z M 213.49414 189 L 200.50586 189 L 200.07227 189.75 L 203.53711 195.75 L 210.46484 195.75 L 213.92773 189.75 L 213.49414 189 z M 190.49414 189 L 177.50586 189 L 177.07227 189.75 L 180.53516 195.75 L 187.46484 195.75 L 190.92773 189.75 L 190.49414 189 z M 167.49414 189 L 154.50586 189 L 154.07227 189.75 L 157.53516 195.75 L 164.46484 195.75 L 167.92773 189.75 L 167.49414 189 z M 144.49414 189 L 131.50586 189 L 131.07227 189.75 L 134.53711 195.75 L 141.46484 195.75 L 144.92773 189.75 L 144.49414 189 z M 121.49414 189 L 108.50586 189 L 108.07227 189.75 L 111.53516 195.75 L 118.46484 195.75 L 121.92773 189.75 L 121.49414 189 z M 98.494141 189 L 85.505859 189 L 85.072266 189.75 L 88.535156 195.75 L 95.464844 195.75 L 98.927734 189.75 L 98.494141 189 z M 75.494141 189 L 62.505859 189 L 62.072266 189.75 L 65.535156 195.75 L 72.464844 195.75 L 75.927734 189.75 L 75.494141 189 z M 52.494141 189 L 39.505859 189 L 39.072266 189.75 L 42.535156 195.75 L 49.464844 195.75 L 52.927734 189.75 L 52.494141 189 z M 29.494141 189 L 16.505859 189 L 16.072266 189.75 L 19.535156 195.75 L 26.464844 195.75 L 29.927734 189.75 L 29.494141 189 z M 6.4941406 189 L 0 189 L 0 183.75 L -3.4648438 183.75 L -6.9277344 189.75 L -3.4648438 195.75 L 3.4648438 195.75 L 6.9277344 189.75 L 6.4941406 189 z M 0 182.25 L 0 170.25 L -3.4648438 170.25 L -6.9277344 176.25 L -3.4648438 182.25 L 0 182.25 z M 0 168.75 L 0 156.75 L -3.4648438 156.75 L -6.9277344 162.75 L -3.4648438 168.75 L 0 168.75 z M 0 155.25 L 0 143.25 L -3.4648438 143.25 L -6.9277344 149.25 L -3.4648438 155.25 L 0 155.25 z M 0 141.75 L 0 129.75 L -3.4648438 129.75 L -6.9277344 135.75 L -3.4648438 141.75 L 0 141.75 z M 0 128.25 L 0 116.25 L -3.4648438 116.25 L -6.9277344 122.25 L -3.4648438 128.25 L 0 128.25 z M 0 114.75 L 0 102.75 L -3.4648438 102.75 L -6.9277344 108.75 L -3.4648438 114.75 L 0 114.75 z M 0 101.25 L 0 89.25 L -3.4648438 89.25 L -6.9277344 95.25 L -3.4648438 101.25 L 0 101.25 z M 0 87.75 L 0 75.75 L -3.4648438 75.75 L -6.9277344 81.75 L -3.4648438 87.75 L 0 87.75 z M 0 74.25 L 0 62.25 L -3.4648438 62.25 L -6.9277344 68.25 L -3.4648438 74.25 L 0 74.25 z M 0 60.75 L 0 48.75 L -3.4648438 48.75 L -6.9277344 54.75 L -3.4648438 60.75 L 0 60.75 z M 0 47.25 L 0 35.25 L -3.4648438 35.25 L -6.9277344 41.25 L -3.4648438 47.25 L 0 47.25 z M 0 33.75 L 0 21.75 L -3.4648438 21.75 L -6.9277344 27.75 L -3.4648438 33.75 L 0 33.75 z M 0 20.25 L 0 8.25 L -3.4648438 8.25 L -6.9277344 14.25 L -3.4648438 20.25 L 0 20.25 z M 8.0351562 1.5 L 14.964844 1.5 L 18.427734 7.5 L 14.964844 13.5 L 8.0351562 13.5 L 4.5722656 7.5 L 8.0351562 1.5 z M 31.035156 1.5 L 37.964844 1.5 L 41.427734 7.5 L 37.964844 13.5 L 31.035156 13.5 L 27.572266 7.5 L 31.035156 1.5 z M 54.035156 1.5 L 60.964844 1.5 L 64.427734 7.5 L 60.964844 13.5 L 54.035156 13.5 L 50.572266 7.5 L 54.035156 1.5 z M 77.035156 1.5 L 83.964844 1.5 L 87.427734 7.5 L 83.964844 13.5 L 77.035156 13.5 L 73.572266 7.5 L 77.035156 1.5 z M 100.03516 1.5 L 106.96484 1.5 L 110.42773 7.5 L 106.96484 13.5 L 100.03516 13.5 L 96.572266 7.5 L 100.03516 1.5 z M 123.03711 1.5 L 129.96484 1.5 L 133.42773 7.5 L 129.96484 13.5 L 123.03711 13.5 L 119.57227 7.5 L 123.03711 1.5 z M 146.03711 1.5 L 152.96484 1.5 L 156.42773 7.5 L 152.96484 13.5 L 146.03711 13.5 L 142.57227 7.5 L 146.03711 1.5 z M 169.03711 1.5 L 175.96484 1.5 L 179.42773 7.5 L 175.96484 13.5 L 169.03711 13.5 L 165.57227 7.5 L 169.03711 1.5 z M 192.03711 1.5 L 198.96484 1.5 L 202.42773 7.5 L 198.96484 13.5 L 192.03711 13.5 L 188.57227 7.5 L 192.03711 1.5 z M 215.03711 1.5 L 221.96484 1.5 L 225.42773 7.5 L 221.96484 13.5 L 215.03711 13.5 L 211.57227 7.5 L 215.03711 1.5 z M 238.03711 1.5 L 244.96484 1.5 L 248.42773 7.5 L 244.96484 13.5 L 238.03711 13.5 L 234.57227 7.5 L 238.03711 1.5 z M 261.03711 1.5 L 267.96484 1.5 L 271.42773 7.5 L 267.96484 13.5 L 261.03711 13.5 L 257.57227 7.5 L 261.03711 1.5 z M 284.03711 1.5 L 290.96484 1.5 L 294.42773 7.5 L 290.96484 13.5 L 284.03711 13.5 L 280.57227 7.5 L 284.03711 1.5 z M 19.535156 8.25 L 26.464844 8.25 L 29.927734 14.25 L 26.464844 20.25 L 19.535156 20.25 L 16.072266 14.25 L 19.535156 8.25 z M 42.535156 8.25 L 49.464844 8.25 L 52.927734 14.25 L 49.464844 20.25 L 42.535156 20.25 L 39.072266 14.25 L 42.535156 8.25 z M 65.535156 8.25 L 72.464844 8.25 L 75.927734 14.25 L 72.464844 20.25 L 65.535156 20.25 L 62.072266 14.25 L 65.535156 8.25 z M 88.535156 8.25 L 95.464844 8.25 L 98.927734 14.25 L 95.464844 20.25 L 88.535156 20.25 L 85.072266 14.25 L 88.535156 8.25 z M 111.53516 8.25 L 118.46484 8.25 L 121.92773 14.25 L 118.46484 20.25 L 111.53516 20.25 L 108.07227 14.25 L 111.53516 8.25 z M 134.53711 8.25 L 141.46484 8.25 L 144.92773 14.25 L 141.46484 20.25 L 134.53711 20.25 L 131.07227 14.25 L 134.53711 8.25 z M 157.53711 8.25 L 164.46484 8.25 L 167.92773 14.25 L 164.46484 20.25 L 157.53711 20.25 L 154.07227 14.25 L 157.53711 8.25 z M 180.53711 8.25 L 187.46484 8.25 L 190.92773 14.25 L 187.46484 20.25 L 180.53711 20.25 L 177.07227 14.25 L 180.53711 8.25 z M 203.53711 8.25 L 210.46484 8.25 L 213.92773 14.25 L 210.46484 20.25 L 203.53711 20.25 L 200.07227 14.25 L 203.53711 8.25 z M 226.53711 8.25 L 233.46484 8.25 L 236.92773 14.25 L 233.46484 20.25 L 226.53711 20.25 L 223.07227 14.25 L 226.53711 8.25 z M 249.53711 8.25 L 256.46484 8.25 L 259.92773 14.25 L 256.46484 20.25 L 249.53711 20.25 L 246.07227 14.25 L 249.53711 8.25 z M 272.53711 8.25 L 279.46484 8.25 L 282.92773 14.25 L 279.46484 20.25 L 272.53711 20.25 L 269.07227 14.25 L 272.53711 8.25 z M 8.0351562 15 L 14.964844 15 L 18.427734 21 L 14.964844 27 L 8.0351562 27 L 4.5722656 21 L 8.0351562 15 z M 31.035156 15 L 37.964844 15 L 41.427734 21 L 37.964844 27 L 31.035156 27 L 27.572266 21 L 31.035156 15 z M 54.035156 15 L 60.964844 15 L 64.427734 21 L 60.964844 27 L 54.035156 27 L 50.572266 21 L 54.035156 15 z M 77.035156 15 L 83.964844 15 L 87.427734 21 L 83.964844 27 L 77.035156 27 L 73.572266 21 L 77.035156 15 z M 100.03516 15 L 106.96484 15 L 110.42773 21 L 106.96484 27 L 100.03516 27 L 96.572266 21 L 100.03516 15 z M 123.03711 15 L 129.96484 15 L 133.42773 21 L 129.96484 27 L 123.03711 27 L 119.57227 21 L 123.03711 15 z M 146.03711 15 L 152.96484 15 L 156.42773 21 L 152.96484 27 L 146.03711 27 L 142.57227 21 L 146.03711 15 z M 169.03711 15 L 175.96484 15 L 179.42773 21 L 175.96484 27 L 169.03711 27 L 165.57227 21 L 169.03711 15 z M 192.03711 15 L 198.96484 15 L 202.42773 21 L 198.96484 27 L 192.03711 27 L 188.57227 21 L 192.03711 15 z M 215.03711 15 L 221.96484 15 L 225.42773 21 L 221.96484 27 L 215.03711 27 L 211.57227 21 L 215.03711 15 z M 238.03711 15 L 244.96484 15 L 248.42773 21 L 244.96484 27 L 238.03711 27 L 234.57227 21 L 238.03711 15 z M 261.03711 15 L 267.96484 15 L 271.42773 21 L 267.96484 27 L 261.03711 27 L 257.57227 21 L 261.03711 15 z M 284.03711 15 L 290.96484 15 L 294.42773 21 L 290.96484 27 L 284.03711 27 L 280.57227 21 L 284.03711 15 z M 19.535156 21.75 L 26.464844 21.75 L 29.927734 27.75 L 26.464844 33.75 L 19.535156 33.75 L 16.072266 27.75 L 19.535156 21.75 z M 42.535156 21.75 L 49.464844 21.75 L 52.927734 27.75 L 49.464844 33.75 L 42.535156 33.75 L 39.072266 27.75 L 42.535156 21.75 z M 65.535156 21.75 L 72.464844 21.75 L 75.927734 27.75 L 72.464844 33.75 L 65.535156 33.75 L 62.072266 27.75 L 65.535156 21.75 z M 88.535156 21.75 L 95.464844 21.75 L 98.927734 27.75 L 95.464844 33.75 L 88.535156 33.75 L 85.072266 27.75 L 88.535156 21.75 z M 111.53516 21.75 L 118.46484 21.75 L 121.92773 27.75 L 118.46484 33.75 L 111.53516 33.75 L 108.07227 27.75 L 111.53516 21.75 z M 134.53711 21.75 L 141.46484 21.75 L 144.92773 27.75 L 141.46484 33.75 L 134.53711 33.75 L 131.07227 27.75 L 134.53711 21.75 z M 157.53711 21.75 L 164.46484 21.75 L 167.92773 27.75 L 164.46484 33.75 L 157.53711 33.75 L 154.07227 27.75 L 157.53711 21.75 z M 180.53711 21.75 L 187.46484 21.75 L 190.92773 27.75 L 187.46484 33.75 L 180.53711 33.75 L 177.07227 27.75 L 180.53711 21.75 z M 203.53711 21.75 L 210.46484 21.75 L 213.92773 27.75 L 210.46484 33.75 L 203.53711 33.75 L 200.07227 27.75 L 203.53711 21.75 z M 226.53711 21.75 L 233.46484 21.75 L 236.92773 27.75 L 233.46484 33.75 L 226.53711 33.75 L 223.07227 27.75 L 226.53711 21.75 z M 249.53711 21.75 L 256.46484 21.75 L 259.92773 27.75 L 256.46484 33.75 L 249.53711 33.75 L 246.07227 27.75 L 249.53711 21.75 z M 272.53711 21.75 L 279.46484 21.75 L 282.92773 27.75 L 279.46484 33.75 L 272.53711 33.75 L 269.07227 27.75 L 272.53711 21.75 z M 8.0351562 28.5 L 14.964844 28.5 L 18.427734 34.5 L 14.964844 40.5 L 8.0351562 40.5 L 4.5722656 34.5 L 8.0351562 28.5 z M 31.035156 28.5 L 37.964844 28.5 L 41.427734 34.5 L 37.964844 40.5 L 31.035156 40.5 L 27.572266 34.5 L 31.035156 28.5 z M 54.035156 28.5 L 60.964844 28.5 L 64.427734 34.5 L 60.964844 40.5 L 54.035156 40.5 L 50.572266 34.5 L 54.035156 28.5 z M 77.035156 28.5 L 83.964844 28.5 L 87.427734 34.5 L 83.964844 40.5 L 77.035156 40.5 L 73.572266 34.5 L 77.035156 28.5 z M 100.03516 28.5 L 106.96484 28.5 L 110.42773 34.5 L 106.96484 40.5 L 100.03516 40.5 L 96.572266 34.5 L 100.03516 28.5 z M 123.03711 28.5 L 129.96484 28.5 L 133.42773 34.5 L 129.96484 40.5 L 123.03711 40.5 L 119.57227 34.5 L 123.03711 28.5 z M 146.03711 28.5 L 152.96484 28.5 L 156.42773 34.5 L 152.96484 40.5 L 146.03711 40.5 L 142.57227 34.5 L 146.03711 28.5 z M 169.03711 28.5 L 175.96484 28.5 L 179.42773 34.5 L 175.96484 40.5 L 169.03711 40.5 L 165.57227 34.5 L 169.03711 28.5 z M 192.03711 28.5 L 198.96484 28.5 L 202.42773 34.5 L 198.96484 40.5 L 192.03711 40.5 L 188.57227 34.5 L 192.03711 28.5 z M 215.03711 28.5 L 221.96484 28.5 L 225.42773 34.5 L 221.96484 40.5 L 215.03711 40.5 L 211.57227 34.5 L 215.03711 28.5 z M 238.03711 28.5 L 244.96484 28.5 L 248.42773 34.5 L 244.96484 40.5 L 238.03711 40.5 L 234.57227 34.5 L 238.03711 28.5 z M 261.03711 28.5 L 267.96484 28.5 L 271.42773 34.5 L 267.96484 40.5 L 261.03711 40.5 L 257.57227 34.5 L 261.03711 28.5 z M 284.03711 28.5 L 290.96484 28.5 L 294.42773 34.5 L 290.96484 40.5 L 284.03711 40.5 L 280.57227 34.5 L 284.03711 28.5 z M 19.535156 35.25 L 26.464844 35.25 L 29.927734 41.25 L 26.464844 47.25 L 19.535156 47.25 L 16.072266 41.25 L 19.535156 35.25 z M 42.535156 35.25 L 49.464844 35.25 L 52.927734 41.25 L 49.464844 47.25 L 42.535156 47.25 L 39.072266 41.25 L 42.535156 35.25 z M 65.535156 35.25 L 72.464844 35.25 L 75.927734 41.25 L 72.464844 47.25 L 65.535156 47.25 L 62.072266 41.25 L 65.535156 35.25 z M 88.535156 35.25 L 95.464844 35.25 L 98.927734 41.25 L 95.464844 47.25 L 88.535156 47.25 L 85.072266 41.25 L 88.535156 35.25 z M 111.53711 35.25 L 118.46484 35.25 L 121.92773 41.25 L 118.46484 47.25 L 111.53711 47.25 L 108.07227 41.25 L 111.53711 35.25 z M 134.53711 35.25 L 141.46484 35.25 L 144.92773 41.25 L 141.46484 47.25 L 134.53711 47.25 L 131.07227 41.25 L 134.53711 35.25 z M 157.53711 35.25 L 164.46484 35.25 L 167.92773 41.25 L 164.46484 47.25 L 157.53711 47.25 L 154.07227 41.25 L 157.53711 35.25 z M 180.53711 35.25 L 187.46484 35.25 L 190.92773 41.25 L 187.46484 47.25 L 180.53711 47.25 L 177.07227 41.25 L 180.53711 35.25 z M 203.53711 35.25 L 210.46484 35.25 L 213.92773 41.25 L 210.46484 47.25 L 203.53711 47.25 L 200.07227 41.25 L 203.53711 35.25 z M 226.53711 35.25 L 233.46484 35.25 L 236.92773 41.25 L 233.46484 47.25 L 226.53711 47.25 L 223.07227 41.25 L 226.53711 35.25 z M 249.53711 35.25 L 256.46484 35.25 L 259.92773 41.25 L 256.46484 47.25 L 249.53711 47.25 L 246.07227 41.25 L 249.53711 35.25 z M 272.53711 35.25 L 279.46484 35.25 L 282.92773 41.25 L 279.46484 47.25 L 272.53711 47.25 L 269.07227 41.25 L 272.53711 35.25 z M 8.0351562 42 L 14.964844 42 L 18.427734 48 L 14.964844 54 L 8.0351562 54 L 4.5722656 48 L 8.0351562 42 z M 31.035156 42 L 37.964844 42 L 41.427734 48 L 37.964844 54 L 31.035156 54 L 27.572266 48 L 31.035156 42 z M 54.035156 42 L 60.964844 42 L 64.427734 48 L 60.964844 54 L 54.035156 54 L 50.572266 48 L 54.035156 42 z M 77.035156 42 L 83.964844 42 L 87.427734 48 L 83.964844 54 L 77.035156 54 L 73.572266 48 L 77.035156 42 z M 100.03516 42 L 106.96484 42 L 110.42773 48 L 106.96484 54 L 100.03516 54 L 96.572266 48 L 100.03516 42 z M 123.03711 42 L 129.96484 42 L 133.42773 48 L 129.96484 54 L 123.03711 54 L 119.57227 48 L 123.03711 42 z M 146.03711 42 L 152.96484 42 L 156.42773 48 L 152.96484 54 L 146.03711 54 L 142.57227 48 L 146.03711 42 z M 169.03711 42 L 175.96484 42 L 179.42773 48 L 175.96484 54 L 169.03711 54 L 165.57227 48 L 169.03711 42 z M 192.03711 42 L 198.96484 42 L 202.42773 48 L 198.96484 54 L 192.03711 54 L 188.57227 48 L 192.03711 42 z M 215.03711 42 L 221.96484 42 L 225.42773 48 L 221.96484 54 L 215.03711 54 L 211.57227 48 L 215.03711 42 z M 238.03711 42 L 244.96484 42 L 248.42773 48 L 244.96484 54 L 238.03711 54 L 234.57227 48 L 238.03711 42 z M 261.03711 42 L 267.96484 42 L 271.42773 48 L 267.96484 54 L 261.03711 54 L 257.57227 48 L 261.03711 42 z M 284.03711 42 L 290.96484 42 L 294.42773 48 L 290.96484 54 L 284.03711 54 L 280.57227 48 L 284.03711 42 z M 19.535156 48.75 L 26.464844 48.75 L 29.927734 54.75 L 26.464844 60.75 L 19.535156 60.75 L 16.072266 54.75 L 19.535156 48.75 z M 42.535156 48.75 L 49.464844 48.75 L 52.927734 54.75 L 49.464844 60.75 L 42.535156 60.75 L 39.072266 54.75 L 42.535156 48.75 z M 65.535156 48.75 L 72.464844 48.75 L 75.927734 54.75 L 72.464844 60.75 L 65.535156 60.75 L 62.072266 54.75 L 65.535156 48.75 z M 88.535156 48.75 L 95.464844 48.75 L 98.927734 54.75 L 95.464844 60.75 L 88.535156 60.75 L 85.072266 54.75 L 88.535156 48.75 z M 111.53711 48.75 L 118.46484 48.75 L 121.92773 54.75 L 118.46484 60.75 L 111.53711 60.75 L 108.07227 54.75 L 111.53711 48.75 z M 134.53711 48.75 L 141.46484 48.75 L 144.92773 54.75 L 141.46484 60.75 L 134.53711 60.75 L 131.07227 54.75 L 134.53711 48.75 z M 157.53711 48.75 L 164.46484 48.75 L 167.92773 54.75 L 164.46484 60.75 L 157.53711 60.75 L 154.07227 54.75 L 157.53711 48.75 z M 180.53711 48.75 L 187.46484 48.75 L 190.92773 54.75 L 187.46484 60.75 L 180.53711 60.75 L 177.07227 54.75 L 180.53711 48.75 z M 203.53711 48.75 L 210.46484 48.75 L 213.92773 54.75 L 210.46484 60.75 L 203.53711 60.75 L 200.07227 54.75 L 203.53711 48.75 z M 226.53711 48.75 L 233.46484 48.75 L 236.92773 54.75 L 233.46484 60.75 L 226.53711 60.75 L 223.07227 54.75 L 226.53711 48.75 z M 249.53711 48.75 L 256.46484 48.75 L 259.92773 54.75 L 256.46484 60.75 L 249.53711 60.75 L 246.07227 54.75 L 249.53711 48.75 z M 272.53711 48.75 L 279.46484 48.75 L 282.92773 54.75 L 279.46484 60.75 L 272.53711 60.75 L 269.07227 54.75 L 272.53711 48.75 z M 8.0351562 55.5 L 14.964844 55.5 L 18.427734 61.5 L 14.964844 67.5 L 8.0351562 67.5 L 4.5722656 61.5 L 8.0351562 55.5 z M 31.035156 55.5 L 37.964844 55.5 L 41.427734 61.5 L 37.964844 67.5 L 31.035156 67.5 L 27.572266 61.5 L 31.035156 55.5 z M 54.035156 55.5 L 60.964844 55.5 L 64.427734 61.5 L 60.964844 67.5 L 54.035156 67.5 L 50.572266 61.5 L 54.035156 55.5 z M 77.035156 55.5 L 83.964844 55.5 L 87.427734 61.5 L 83.964844 67.5 L 77.035156 67.5 L 73.572266 61.5 L 77.035156 55.5 z M 100.03516 55.5 L 106.96484 55.5 L 110.42773 61.5 L 106.96484 67.5 L 100.03516 67.5 L 96.572266 61.5 L 100.03516 55.5 z M 123.03711 55.5 L 129.96484 55.5 L 133.42773 61.5 L 129.96484 67.5 L 123.03711 67.5 L 119.57227 61.5 L 123.03711 55.5 z M 146.03711 55.5 L 152.96484 55.5 L 156.42773 61.5 L 152.96484 67.5 L 146.03711 67.5 L 142.57227 61.5 L 146.03711 55.5 z M 169.03711 55.5 L 175.96484 55.5 L 179.42773 61.5 L 175.96484 67.5 L 169.03711 67.5 L 165.57227 61.5 L 169.03711 55.5 z M 192.03711 55.5 L 198.96484 55.5 L 202.42773 61.5 L 198.96484 67.5 L 192.03711 67.5 L 188.57227 61.5 L 192.03711 55.5 z M 215.03711 55.5 L 221.96484 55.5 L 225.42773 61.5 L 221.96484 67.5 L 215.03711 67.5 L 211.57227 61.5 L 215.03711 55.5 z M 238.03711 55.5 L 244.96484 55.5 L 248.42773 61.5 L 244.96484 67.5 L 238.03711 67.5 L 234.57227 61.5 L 238.03711 55.5 z M 261.03711 55.5 L 267.96484 55.5 L 271.42773 61.5 L 267.96484 67.5 L 261.03711 67.5 L 257.57227 61.5 L 261.03711 55.5 z M 284.03711 55.5 L 290.96484 55.5 L 294.42773 61.5 L 290.96484 67.5 L 284.03711 67.5 L 280.57227 61.5 L 284.03711 55.5 z M 19.535156 62.25 L 26.464844 62.25 L 29.927734 68.25 L 26.464844 74.25 L 19.535156 74.25 L 16.072266 68.25 L 19.535156 62.25 z M 42.535156 62.25 L 49.464844 62.25 L 52.927734 68.25 L 49.464844 74.25 L 42.535156 74.25 L 39.072266 68.25 L 42.535156 62.25 z M 65.535156 62.25 L 72.464844 62.25 L 75.927734 68.25 L 72.464844 74.25 L 65.535156 74.25 L 62.072266 68.25 L 65.535156 62.25 z M 88.535156 62.25 L 95.464844 62.25 L 98.927734 68.25 L 95.464844 74.25 L 88.535156 74.25 L 85.072266 68.25 L 88.535156 62.25 z M 111.53711 62.25 L 118.46484 62.25 L 121.92773 68.25 L 118.46484 74.25 L 111.53711 74.25 L 108.07227 68.25 L 111.53711 62.25 z M 134.53711 62.25 L 141.46484 62.25 L 144.92773 68.25 L 141.46484 74.25 L 134.53711 74.25 L 131.07227 68.25 L 134.53711 62.25 z M 157.53711 62.25 L 164.46484 62.25 L 167.92773 68.25 L 164.46484 74.25 L 157.53711 74.25 L 154.07227 68.25 L 157.53711 62.25 z M 180.53711 62.25 L 187.46484 62.25 L 190.92773 68.25 L 187.46484 74.25 L 180.53711 74.25 L 177.07227 68.25 L 180.53711 62.25 z M 203.53711 62.25 L 210.46484 62.25 L 213.92773 68.25 L 210.46484 74.25 L 203.53711 74.25 L 200.07227 68.25 L 203.53711 62.25 z M 226.53711 62.25 L 233.46484 62.25 L 236.92773 68.25 L 233.46484 74.25 L 226.53711 74.25 L 223.07227 68.25 L 226.53711 62.25 z M 249.53711 62.25 L 256.46484 62.25 L 259.92773 68.25 L 256.46484 74.25 L 249.53711 74.25 L 246.07227 68.25 L 249.53711 62.25 z M 272.53711 62.25 L 279.46484 62.25 L 282.92773 68.25 L 279.46484 74.25 L 272.53711 74.25 L 269.07227 68.25 L 272.53711 62.25 z M 8.0351562 69 L 14.964844 69 L 18.427734 75 L 14.964844 81 L 8.0351562 81 L 4.5722656 75 L 8.0351562 69 z M 31.035156 69 L 37.964844 69 L 41.427734 75 L 37.964844 81 L 31.035156 81 L 27.572266 75 L 31.035156 69 z M 54.035156 69 L 60.964844 69 L 64.427734 75 L 60.964844 81 L 54.035156 81 L 50.572266 75 L 54.035156 69 z M 77.035156 69 L 83.964844 69 L 87.427734 75 L 83.964844 81 L 77.035156 81 L 73.572266 75 L 77.035156 69 z M 100.03516 69 L 106.96484 69 L 110.42773 75 L 106.96484 81 L 100.03516 81 L 96.572266 75 L 100.03516 69 z M 123.03711 69 L 129.96484 69 L 133.42773 75 L 129.96484 81 L 123.03711 81 L 119.57227 75 L 123.03711 69 z M 146.03711 69 L 152.96484 69 L 156.42773 75 L 152.96484 81 L 146.03711 81 L 142.57227 75 L 146.03711 69 z M 169.03711 69 L 175.96484 69 L 179.42773 75 L 175.96484 81 L 169.03711 81 L 165.57227 75 L 169.03711 69 z M 192.03711 69 L 198.96484 69 L 202.42773 75 L 198.96484 81 L 192.03711 81 L 188.57227 75 L 192.03711 69 z M 215.03711 69 L 221.96484 69 L 225.42773 75 L 221.96484 81 L 215.03711 81 L 211.57227 75 L 215.03711 69 z M 238.03711 69 L 244.96484 69 L 248.42773 75 L 244.96484 81 L 238.03711 81 L 234.57227 75 L 238.03711 69 z M 261.03711 69 L 267.96484 69 L 271.42773 75 L 267.96484 81 L 261.03711 81 L 257.57227 75 L 261.03711 69 z M 284.03711 69 L 290.96484 69 L 294.42773 75 L 290.96484 81 L 284.03711 81 L 280.57227 75 L 284.03711 69 z M 19.535156 75.75 L 26.464844 75.75 L 29.927734 81.75 L 26.464844 87.75 L 19.535156 87.75 L 16.072266 81.75 L 19.535156 75.75 z M 42.535156 75.75 L 49.464844 75.75 L 52.927734 81.75 L 49.464844 87.75 L 42.535156 87.75 L 39.072266 81.75 L 42.535156 75.75 z M 65.535156 75.75 L 72.464844 75.75 L 75.927734 81.75 L 72.464844 87.75 L 65.535156 87.75 L 62.072266 81.75 L 65.535156 75.75 z M 88.535156 75.75 L 95.464844 75.75 L 98.927734 81.75 L 95.464844 87.75 L 88.535156 87.75 L 85.072266 81.75 L 88.535156 75.75 z M 111.53711 75.75 L 118.46484 75.75 L 121.92773 81.75 L 118.46484 87.75 L 111.53711 87.75 L 108.07227 81.75 L 111.53711 75.75 z M 134.53711 75.75 L 141.46484 75.75 L 144.92773 81.75 L 141.46484 87.75 L 134.53711 87.75 L 131.07227 81.75 L 134.53711 75.75 z M 157.53711 75.75 L 164.46484 75.75 L 167.92773 81.75 L 164.46484 87.75 L 157.53711 87.75 L 154.07227 81.75 L 157.53711 75.75 z M 180.53711 75.75 L 187.46484 75.75 L 190.92773 81.75 L 187.46484 87.75 L 180.53711 87.75 L 177.07227 81.75 L 180.53711 75.75 z M 203.53711 75.75 L 210.46484 75.75 L 213.92773 81.75 L 210.46484 87.75 L 203.53711 87.75 L 200.07227 81.75 L 203.53711 75.75 z M 226.53711 75.75 L 233.46484 75.75 L 236.92773 81.75 L 233.46484 87.75 L 226.53711 87.75 L 223.07227 81.75 L 226.53711 75.75 z M 249.53711 75.75 L 256.46484 75.75 L 259.92773 81.75 L 256.46484 87.75 L 249.53711 87.75 L 246.07227 81.75 L 249.53711 75.75 z M 272.53711 75.75 L 279.46484 75.75 L 282.92773 81.75 L 279.46484 87.75 L 272.53711 87.75 L 269.07227 81.75 L 272.53711 75.75 z M 8.0351562 82.5 L 14.964844 82.5 L 18.427734 88.5 L 14.964844 94.5 L 8.0351562 94.5 L 4.5722656 88.5 L 8.0351562 82.5 z M 31.035156 82.5 L 37.964844 82.5 L 41.427734 88.5 L 37.964844 94.5 L 31.035156 94.5 L 27.572266 88.5 L 31.035156 82.5 z M 54.035156 82.5 L 60.964844 82.5 L 64.427734 88.5 L 60.964844 94.5 L 54.035156 94.5 L 50.572266 88.5 L 54.035156 82.5 z M 77.035156 82.5 L 83.964844 82.5 L 87.427734 88.5 L 83.964844 94.5 L 77.035156 94.5 L 73.572266 88.5 L 77.035156 82.5 z M 100.03516 82.5 L 106.96484 82.5 L 110.42773 88.5 L 106.96484 94.5 L 100.03516 94.5 L 96.572266 88.5 L 100.03516 82.5 z M 123.03711 82.5 L 129.96484 82.5 L 133.42773 88.5 L 129.96484 94.5 L 123.03711 94.5 L 119.57227 88.5 L 123.03711 82.5 z M 146.03711 82.5 L 152.96484 82.5 L 156.42773 88.5 L 152.96484 94.5 L 146.03711 94.5 L 142.57227 88.5 L 146.03711 82.5 z M 169.03711 82.5 L 175.96484 82.5 L 179.42773 88.5 L 175.96484 94.5 L 169.03711 94.5 L 165.57227 88.5 L 169.03711 82.5 z M 192.03711 82.5 L 198.96484 82.5 L 202.42773 88.5 L 198.96484 94.5 L 192.03711 94.5 L 188.57227 88.5 L 192.03711 82.5 z M 215.03711 82.5 L 221.96484 82.5 L 225.42773 88.5 L 221.96484 94.5 L 215.03711 94.5 L 211.57227 88.5 L 215.03711 82.5 z M 238.03711 82.5 L 244.96484 82.5 L 248.42773 88.5 L 244.96484 94.5 L 238.03711 94.5 L 234.57227 88.5 L 238.03711 82.5 z M 261.03711 82.5 L 267.96484 82.5 L 271.42773 88.5 L 267.96484 94.5 L 261.03711 94.5 L 257.57227 88.5 L 261.03711 82.5 z M 284.03711 82.5 L 290.96484 82.5 L 294.42773 88.5 L 290.96484 94.5 L 284.03711 94.5 L 280.57227 88.5 L 284.03711 82.5 z M 19.535156 89.25 L 26.464844 89.25 L 29.927734 95.25 L 26.464844 101.25 L 19.535156 101.25 L 16.072266 95.25 L 19.535156 89.25 z M 42.535156 89.25 L 49.464844 89.25 L 52.927734 95.25 L 49.464844 101.25 L 42.535156 101.25 L 39.072266 95.25 L 42.535156 89.25 z M 65.535156 89.25 L 72.464844 89.25 L 75.927734 95.25 L 72.464844 101.25 L 65.535156 101.25 L 62.072266 95.25 L 65.535156 89.25 z M 88.535156 89.25 L 95.464844 89.25 L 98.927734 95.25 L 95.464844 101.25 L 88.535156 101.25 L 85.072266 95.25 L 88.535156 89.25 z M 111.53516 89.25 L 118.46484 89.25 L 121.92773 95.25 L 118.46484 101.25 L 111.53516 101.25 L 108.07227 95.25 L 111.53516 89.25 z M 134.53711 89.25 L 141.46484 89.25 L 144.92773 95.25 L 141.46484 101.25 L 134.53711 101.25 L 131.07227 95.25 L 134.53711 89.25 z M 157.53711 89.25 L 164.46484 89.25 L 167.92773 95.25 L 164.46484 101.25 L 157.53711 101.25 L 154.07227 95.25 L 157.53711 89.25 z M 180.53711 89.25 L 187.46484 89.25 L 190.92773 95.25 L 187.46484 101.25 L 180.53711 101.25 L 177.07227 95.25 L 180.53711 89.25 z M 203.53711 89.25 L 210.46484 89.25 L 213.92773 95.25 L 210.46484 101.25 L 203.53711 101.25 L 200.07227 95.25 L 203.53711 89.25 z M 226.53711 89.25 L 233.46484 89.25 L 236.92773 95.25 L 233.46484 101.25 L 226.53711 101.25 L 223.07227 95.25 L 226.53711 89.25 z M 249.53711 89.25 L 256.46484 89.25 L 259.92773 95.25 L 256.46484 101.25 L 249.53711 101.25 L 246.07227 95.25 L 249.53711 89.25 z M 272.53711 89.25 L 279.46484 89.25 L 282.92773 95.25 L 279.46484 101.25 L 272.53711 101.25 L 269.07227 95.25 L 272.53711 89.25 z M 8.0351562 96 L 14.964844 96 L 18.427734 102 L 14.964844 108 L 8.0351562 108 L 4.5722656 102 L 8.0351562 96 z M 31.035156 96 L 37.964844 96 L 41.427734 102 L 37.964844 108 L 31.035156 108 L 27.572266 102 L 31.035156 96 z M 54.035156 96 L 60.964844 96 L 64.427734 102 L 60.964844 108 L 54.035156 108 L 50.572266 102 L 54.035156 96 z M 77.035156 96 L 83.964844 96 L 87.427734 102 L 83.964844 108 L 77.035156 108 L 73.572266 102 L 77.035156 96 z M 100.03516 96 L 106.96484 96 L 110.42773 102 L 106.96484 108 L 100.03516 108 L 96.572266 102 L 100.03516 96 z M 123.03711 96 L 129.96484 96 L 133.42773 102 L 129.96484 108 L 123.03711 108 L 119.57227 102 L 123.03711 96 z M 146.03711 96 L 152.96484 96 L 156.42773 102 L 152.96484 108 L 146.03711 108 L 142.57227 102 L 146.03711 96 z M 169.03711 96 L 175.96484 96 L 179.42773 102 L 175.96484 108 L 169.03711 108 L 165.57227 102 L 169.03711 96 z M 192.03711 96 L 198.96484 96 L 202.42773 102 L 198.96484 108 L 192.03711 108 L 188.57227 102 L 192.03711 96 z M 215.03711 96 L 221.96484 96 L 225.42773 102 L 221.96484 108 L 215.03711 108 L 211.57227 102 L 215.03711 96 z M 238.03711 96 L 244.96484 96 L 248.42773 102 L 244.96484 108 L 238.03711 108 L 234.57227 102 L 238.03711 96 z M 261.03711 96 L 267.96484 96 L 271.42773 102 L 267.96484 108 L 261.03711 108 L 257.57227 102 L 261.03711 96 z M 284.03711 96 L 290.96484 96 L 294.42773 102 L 290.96484 108 L 284.03711 108 L 280.57227 102 L 284.03711 96 z M 19.535156 102.75 L 26.464844 102.75 L 29.927734 108.75 L 26.464844 114.75 L 19.535156 114.75 L 16.072266 108.75 L 19.535156 102.75 z M 42.535156 102.75 L 49.464844 102.75 L 52.927734 108.75 L 49.464844 114.75 L 42.535156 114.75 L 39.072266 108.75 L 42.535156 102.75 z M 65.535156 102.75 L 72.464844 102.75 L 75.927734 108.75 L 72.464844 114.75 L 65.535156 114.75 L 62.072266 108.75 L 65.535156 102.75 z M 88.535156 102.75 L 95.464844 102.75 L 98.927734 108.75 L 95.464844 114.75 L 88.535156 114.75 L 85.072266 108.75 L 88.535156 102.75 z M 111.53516 102.75 L 118.46484 102.75 L 121.92773 108.75 L 118.46484 114.75 L 111.53516 114.75 L 108.07227 108.75 L 111.53516 102.75 z M 134.53711 102.75 L 141.46484 102.75 L 144.92773 108.75 L 141.46484 114.75 L 134.53711 114.75 L 131.07227 108.75 L 134.53711 102.75 z M 157.53711 102.75 L 164.46484 102.75 L 167.92773 108.75 L 164.46484 114.75 L 157.53711 114.75 L 154.07227 108.75 L 157.53711 102.75 z M 180.53711 102.75 L 187.46484 102.75 L 190.92773 108.75 L 187.46484 114.75 L 180.53711 114.75 L 177.07227 108.75 L 180.53711 102.75 z M 203.53711 102.75 L 210.46484 102.75 L 213.92773 108.75 L 210.46484 114.75 L 203.53711 114.75 L 200.07227 108.75 L 203.53711 102.75 z M 226.53711 102.75 L 233.46484 102.75 L 236.92773 108.75 L 233.46484 114.75 L 226.53711 114.75 L 223.07227 108.75 L 226.53711 102.75 z M 249.53711 102.75 L 256.46484 102.75 L 259.92773 108.75 L 256.46484 114.75 L 249.53711 114.75 L 246.07227 108.75 L 249.53711 102.75 z M 272.53711 102.75 L 279.46484 102.75 L 282.92773 108.75 L 279.46484 114.75 L 272.53711 114.75 L 269.07227 108.75 L 272.53711 102.75 z M 8.0351562 109.5 L 14.964844 109.5 L 18.427734 115.5 L 14.964844 121.5 L 8.0351562 121.5 L 4.5722656 115.5 L 8.0351562 109.5 z M 31.035156 109.5 L 37.964844 109.5 L 41.427734 115.5 L 37.964844 121.5 L 31.035156 121.5 L 27.572266 115.5 L 31.035156 109.5 z M 54.035156 109.5 L 60.964844 109.5 L 64.427734 115.5 L 60.964844 121.5 L 54.035156 121.5 L 50.572266 115.5 L 54.035156 109.5 z M 77.035156 109.5 L 83.964844 109.5 L 87.427734 115.5 L 83.964844 121.5 L 77.035156 121.5 L 73.572266 115.5 L 77.035156 109.5 z M 100.03516 109.5 L 106.96484 109.5 L 110.42773 115.5 L 106.96484 121.5 L 100.03516 121.5 L 96.572266 115.5 L 100.03516 109.5 z M 123.03711 109.5 L 129.96484 109.5 L 133.42773 115.5 L 129.96484 121.5 L 123.03711 121.5 L 119.57227 115.5 L 123.03711 109.5 z M 146.03711 109.5 L 152.96484 109.5 L 156.42773 115.5 L 152.96484 121.5 L 146.03711 121.5 L 142.57227 115.5 L 146.03711 109.5 z M 169.03516 109.5 L 175.96484 109.5 L 179.42773 115.5 L 175.96484 121.5 L 169.03516 121.5 L 165.57227 115.5 L 169.03516 109.5 z M 192.03711 109.5 L 198.96484 109.5 L 202.42773 115.5 L 198.96484 121.5 L 192.03711 121.5 L 188.57227 115.5 L 192.03711 109.5 z M 215.03711 109.5 L 221.96484 109.5 L 225.42773 115.5 L 221.96484 121.5 L 215.03711 121.5 L 211.57227 115.5 L 215.03711 109.5 z M 238.03711 109.5 L 244.96484 109.5 L 248.42773 115.5 L 244.96484 121.5 L 238.03711 121.5 L 234.57227 115.5 L 238.03711 109.5 z M 261.03711 109.5 L 267.96484 109.5 L 271.42773 115.5 L 267.96484 121.5 L 261.03711 121.5 L 257.57227 115.5 L 261.03711 109.5 z M 284.03711 109.5 L 290.96484 109.5 L 294.42773 115.5 L 290.96484 121.5 L 284.03711 121.5 L 280.57227 115.5 L 284.03711 109.5 z M 19.535156 116.25 L 26.464844 116.25 L 29.927734 122.25 L 26.464844 128.25 L 19.535156 128.25 L 16.072266 122.25 L 19.535156 116.25 z M 42.535156 116.25 L 49.464844 116.25 L 52.927734 122.25 L 49.464844 128.25 L 42.535156 128.25 L 39.072266 122.25 L 42.535156 116.25 z M 65.535156 116.25 L 72.464844 116.25 L 75.927734 122.25 L 72.464844 128.25 L 65.535156 128.25 L 62.072266 122.25 L 65.535156 116.25 z M 88.535156 116.25 L 95.464844 116.25 L 98.927734 122.25 L 95.464844 128.25 L 88.535156 128.25 L 85.072266 122.25 L 88.535156 116.25 z M 111.53516 116.25 L 118.46484 116.25 L 121.92773 122.25 L 118.46484 128.25 L 111.53516 128.25 L 108.07227 122.25 L 111.53516 116.25 z M 134.53711 116.25 L 141.46484 116.25 L 144.92773 122.25 L 141.46484 128.25 L 134.53711 128.25 L 131.07227 122.25 L 134.53711 116.25 z M 157.53711 116.25 L 164.46484 116.25 L 167.92773 122.25 L 164.46484 128.25 L 157.53711 128.25 L 154.07227 122.25 L 157.53711 116.25 z M 180.53711 116.25 L 187.46484 116.25 L 190.92773 122.25 L 187.46484 128.25 L 180.53711 128.25 L 177.07227 122.25 L 180.53711 116.25 z M 203.53711 116.25 L 210.46484 116.25 L 213.92773 122.25 L 210.46484 128.25 L 203.53711 128.25 L 200.07227 122.25 L 203.53711 116.25 z M 226.53711 116.25 L 233.46484 116.25 L 236.92773 122.25 L 233.46484 128.25 L 226.53711 128.25 L 223.07227 122.25 L 226.53711 116.25 z M 249.53711 116.25 L 256.46484 116.25 L 259.92773 122.25 L 256.46484 128.25 L 249.53711 128.25 L 246.07227 122.25 L 249.53711 116.25 z M 272.53711 116.25 L 279.46484 116.25 L 282.92773 122.25 L 279.46484 128.25 L 272.53711 128.25 L 269.07227 122.25 L 272.53711 116.25 z M 8.0351562 123 L 14.964844 123 L 18.427734 129 L 14.964844 135 L 8.0351562 135 L 4.5722656 129 L 8.0351562 123 z M 31.035156 123 L 37.964844 123 L 41.427734 129 L 37.964844 135 L 31.035156 135 L 27.572266 129 L 31.035156 123 z M 54.035156 123 L 60.964844 123 L 64.427734 129 L 60.964844 135 L 54.035156 135 L 50.572266 129 L 54.035156 123 z M 77.035156 123 L 83.964844 123 L 87.427734 129 L 83.964844 135 L 77.035156 135 L 73.572266 129 L 77.035156 123 z M 100.03516 123 L 106.96484 123 L 110.42773 129 L 106.96484 135 L 100.03516 135 L 96.572266 129 L 100.03516 123 z M 123.03711 123 L 129.96484 123 L 133.42773 129 L 129.96484 135 L 123.03711 135 L 119.57227 129 L 123.03711 123 z M 146.03711 123 L 152.96484 123 L 156.42773 129 L 152.96484 135 L 146.03711 135 L 142.57227 129 L 146.03711 123 z M 169.03516 123 L 175.96484 123 L 179.42773 129 L 175.96484 135 L 169.03516 135 L 165.57227 129 L 169.03516 123 z M 192.03711 123 L 198.96484 123 L 202.42773 129 L 198.96484 135 L 192.03711 135 L 188.57227 129 L 192.03711 123 z M 215.03711 123 L 221.96484 123 L 225.42773 129 L 221.96484 135 L 215.03711 135 L 211.57227 129 L 215.03711 123 z M 238.03711 123 L 244.96484 123 L 248.42773 129 L 244.96484 135 L 238.03711 135 L 234.57227 129 L 238.03711 123 z M 261.03711 123 L 267.96484 123 L 271.42773 129 L 267.96484 135 L 261.03711 135 L 257.57227 129 L 261.03711 123 z M 284.03711 123 L 290.96484 123 L 294.42773 129 L 290.96484 135 L 284.03711 135 L 280.57227 129 L 284.03711 123 z M 19.535156 129.75 L 26.464844 129.75 L 29.927734 135.75 L 26.464844 141.75 L 19.535156 141.75 L 16.072266 135.75 L 19.535156 129.75 z M 42.535156 129.75 L 49.464844 129.75 L 52.927734 135.75 L 49.464844 141.75 L 42.535156 141.75 L 39.072266 135.75 L 42.535156 129.75 z M 65.535156 129.75 L 72.464844 129.75 L 75.927734 135.75 L 72.464844 141.75 L 65.535156 141.75 L 62.072266 135.75 L 65.535156 129.75 z M 88.535156 129.75 L 95.464844 129.75 L 98.927734 135.75 L 95.464844 141.75 L 88.535156 141.75 L 85.072266 135.75 L 88.535156 129.75 z M 111.53516 129.75 L 118.46484 129.75 L 121.92773 135.75 L 118.46484 141.75 L 111.53516 141.75 L 108.07227 135.75 L 111.53516 129.75 z M 134.53711 129.75 L 141.46484 129.75 L 144.92773 135.75 L 141.46484 141.75 L 134.53711 141.75 L 131.07227 135.75 L 134.53711 129.75 z M 157.53711 129.75 L 164.46484 129.75 L 167.92773 135.75 L 164.46484 141.75 L 157.53711 141.75 L 154.07227 135.75 L 157.53711 129.75 z M 180.53711 129.75 L 187.46484 129.75 L 190.92773 135.75 L 187.46484 141.75 L 180.53711 141.75 L 177.07227 135.75 L 180.53711 129.75 z M 203.53711 129.75 L 210.46484 129.75 L 213.92773 135.75 L 210.46484 141.75 L 203.53711 141.75 L 200.07227 135.75 L 203.53711 129.75 z M 226.53711 129.75 L 233.46484 129.75 L 236.92773 135.75 L 233.46484 141.75 L 226.53711 141.75 L 223.07227 135.75 L 226.53711 129.75 z M 249.53711 129.75 L 256.46484 129.75 L 259.92773 135.75 L 256.46484 141.75 L 249.53711 141.75 L 246.07227 135.75 L 249.53711 129.75 z M 272.53711 129.75 L 279.46484 129.75 L 282.92773 135.75 L 279.46484 141.75 L 272.53711 141.75 L 269.07227 135.75 L 272.53711 129.75 z M 8.0351562 136.5 L 14.964844 136.5 L 18.427734 142.5 L 14.964844 148.5 L 8.0351562 148.5 L 4.5722656 142.5 L 8.0351562 136.5 z M 31.035156 136.5 L 37.964844 136.5 L 41.427734 142.5 L 37.964844 148.5 L 31.035156 148.5 L 27.572266 142.5 L 31.035156 136.5 z M 54.035156 136.5 L 60.964844 136.5 L 64.427734 142.5 L 60.964844 148.5 L 54.035156 148.5 L 50.572266 142.5 L 54.035156 136.5 z M 77.035156 136.5 L 83.964844 136.5 L 87.427734 142.5 L 83.964844 148.5 L 77.035156 148.5 L 73.572266 142.5 L 77.035156 136.5 z M 100.03516 136.5 L 106.96484 136.5 L 110.42773 142.5 L 106.96484 148.5 L 100.03516 148.5 L 96.572266 142.5 L 100.03516 136.5 z M 123.03711 136.5 L 129.96484 136.5 L 133.42773 142.5 L 129.96484 148.5 L 123.03711 148.5 L 119.57227 142.5 L 123.03711 136.5 z M 146.03711 136.5 L 152.96484 136.5 L 156.42773 142.5 L 152.96484 148.5 L 146.03711 148.5 L 142.57227 142.5 L 146.03711 136.5 z M 169.03711 136.5 L 175.96484 136.5 L 179.42773 142.5 L 175.96484 148.5 L 169.03711 148.5 L 165.57227 142.5 L 169.03711 136.5 z M 192.03711 136.5 L 198.96484 136.5 L 202.42773 142.5 L 198.96484 148.5 L 192.03711 148.5 L 188.57227 142.5 L 192.03711 136.5 z M 215.03711 136.5 L 221.96484 136.5 L 225.42773 142.5 L 221.96484 148.5 L 215.03711 148.5 L 211.57227 142.5 L 215.03711 136.5 z M 238.03711 136.5 L 244.96484 136.5 L 248.42773 142.5 L 244.96484 148.5 L 238.03711 148.5 L 234.57227 142.5 L 238.03711 136.5 z M 261.03711 136.5 L 267.96484 136.5 L 271.42773 142.5 L 267.96484 148.5 L 261.03711 148.5 L 257.57227 142.5 L 261.03711 136.5 z M 284.03711 136.5 L 290.96484 136.5 L 294.42773 142.5 L 290.96484 148.5 L 284.03711 148.5 L 280.57227 142.5 L 284.03711 136.5 z M 19.535156 143.25 L 26.464844 143.25 L 29.927734 149.25 L 26.464844 155.25 L 19.535156 155.25 L 16.072266 149.25 L 19.535156 143.25 z M 42.535156 143.25 L 49.464844 143.25 L 52.927734 149.25 L 49.464844 155.25 L 42.535156 155.25 L 39.072266 149.25 L 42.535156 143.25 z M 65.535156 143.25 L 72.464844 143.25 L 75.927734 149.25 L 72.464844 155.25 L 65.535156 155.25 L 62.072266 149.25 L 65.535156 143.25 z M 88.535156 143.25 L 95.464844 143.25 L 98.927734 149.25 L 95.464844 155.25 L 88.535156 155.25 L 85.072266 149.25 L 88.535156 143.25 z M 111.53516 143.25 L 118.46484 143.25 L 121.92773 149.25 L 118.46484 155.25 L 111.53516 155.25 L 108.07227 149.25 L 111.53516 143.25 z M 134.53711 143.25 L 141.46484 143.25 L 144.92773 149.25 L 141.46484 155.25 L 134.53711 155.25 L 131.07227 149.25 L 134.53711 143.25 z M 157.53711 143.25 L 164.46484 143.25 L 167.92773 149.25 L 164.46484 155.25 L 157.53711 155.25 L 154.07227 149.25 L 157.53711 143.25 z M 180.53711 143.25 L 187.46484 143.25 L 190.92773 149.25 L 187.46484 155.25 L 180.53711 155.25 L 177.07227 149.25 L 180.53711 143.25 z M 203.53711 143.25 L 210.46484 143.25 L 213.92773 149.25 L 210.46484 155.25 L 203.53711 155.25 L 200.07227 149.25 L 203.53711 143.25 z M 226.53711 143.25 L 233.46484 143.25 L 236.92773 149.25 L 233.46484 155.25 L 226.53711 155.25 L 223.07227 149.25 L 226.53711 143.25 z M 249.53711 143.25 L 256.46484 143.25 L 259.92773 149.25 L 256.46484 155.25 L 249.53711 155.25 L 246.07227 149.25 L 249.53711 143.25 z M 272.53711 143.25 L 279.46484 143.25 L 282.92773 149.25 L 279.46484 155.25 L 272.53711 155.25 L 269.07227 149.25 L 272.53711 143.25 z M 8.0351562 150 L 14.964844 150 L 18.427734 156 L 14.964844 162 L 8.0351562 162 L 4.5722656 156 L 8.0351562 150 z M 31.035156 150 L 37.964844 150 L 41.427734 156 L 37.964844 162 L 31.035156 162 L 27.572266 156 L 31.035156 150 z M 54.035156 150 L 60.964844 150 L 64.427734 156 L 60.964844 162 L 54.035156 162 L 50.572266 156 L 54.035156 150 z M 77.035156 150 L 83.964844 150 L 87.427734 156 L 83.964844 162 L 77.035156 162 L 73.572266 156 L 77.035156 150 z M 100.03516 150 L 106.96484 150 L 110.42773 156 L 106.96484 162 L 100.03516 162 L 96.572266 156 L 100.03516 150 z M 123.03711 150 L 129.96484 150 L 133.42773 156 L 129.96484 162 L 123.03711 162 L 119.57227 156 L 123.03711 150 z M 146.03516 150 L 152.96484 150 L 156.42773 156 L 152.96484 162 L 146.03516 162 L 142.57227 156 L 146.03516 150 z M 169.03711 150 L 175.96484 150 L 179.42773 156 L 175.96484 162 L 169.03711 162 L 165.57227 156 L 169.03711 150 z M 192.03711 150 L 198.96484 150 L 202.42773 156 L 198.96484 162 L 192.03711 162 L 188.57227 156 L 192.03711 150 z M 215.03711 150 L 221.96484 150 L 225.42773 156 L 221.96484 162 L 215.03711 162 L 211.57227 156 L 215.03711 150 z M 238.03711 150 L 244.96484 150 L 248.42773 156 L 244.96484 162 L 238.03711 162 L 234.57227 156 L 238.03711 150 z M 261.03711 150 L 267.96484 150 L 271.42773 156 L 267.96484 162 L 261.03711 162 L 257.57227 156 L 261.03711 150 z M 284.03711 150 L 290.96484 150 L 294.42773 156 L 290.96484 162 L 284.03711 162 L 280.57227 156 L 284.03711 150 z M 19.535156 156.75 L 26.464844 156.75 L 29.927734 162.75 L 26.464844 168.75 L 19.535156 168.75 L 16.072266 162.75 L 19.535156 156.75 z M 42.535156 156.75 L 49.464844 156.75 L 52.927734 162.75 L 49.464844 168.75 L 42.535156 168.75 L 39.072266 162.75 L 42.535156 156.75 z M 65.535156 156.75 L 72.464844 156.75 L 75.927734 162.75 L 72.464844 168.75 L 65.535156 168.75 L 62.072266 162.75 L 65.535156 156.75 z M 88.535156 156.75 L 95.464844 156.75 L 98.927734 162.75 L 95.464844 168.75 L 88.535156 168.75 L 85.072266 162.75 L 88.535156 156.75 z M 111.53516 156.75 L 118.46484 156.75 L 121.92773 162.75 L 118.46484 168.75 L 111.53516 168.75 L 108.07227 162.75 L 111.53516 156.75 z M 134.53516 156.75 L 141.46484 156.75 L 144.92773 162.75 L 141.46484 168.75 L 134.53516 168.75 L 131.07227 162.75 L 134.53516 156.75 z M 157.53711 156.75 L 164.46484 156.75 L 167.92773 162.75 L 164.46484 168.75 L 157.53711 168.75 L 154.07227 162.75 L 157.53711 156.75 z M 180.53516 156.75 L 187.46484 156.75 L 190.92773 162.75 L 187.46484 168.75 L 180.53516 168.75 L 177.07227 162.75 L 180.53516 156.75 z M 203.53711 156.75 L 210.46484 156.75 L 213.92773 162.75 L 210.46484 168.75 L 203.53711 168.75 L 200.07227 162.75 L 203.53711 156.75 z M 226.53711 156.75 L 233.46484 156.75 L 236.92773 162.75 L 233.46484 168.75 L 226.53711 168.75 L 223.07227 162.75 L 226.53711 156.75 z M 249.53711 156.75 L 256.46484 156.75 L 259.92773 162.75 L 256.46484 168.75 L 249.53711 168.75 L 246.07227 162.75 L 249.53711 156.75 z M 272.53711 156.75 L 279.46484 156.75 L 282.92773 162.75 L 279.46484 168.75 L 272.53711 168.75 L 269.07227 162.75 L 272.53711 156.75 z M 8.0351562 163.5 L 14.964844 163.5 L 18.427734 169.5 L 14.964844 175.5 L 8.0351562 175.5 L 4.5722656 169.5 L 8.0351562 163.5 z M 31.035156 163.5 L 37.964844 163.5 L 41.427734 169.5 L 37.964844 175.5 L 31.035156 175.5 L 27.572266 169.5 L 31.035156 163.5 z M 54.035156 163.5 L 60.964844 163.5 L 64.427734 169.5 L 60.964844 175.5 L 54.035156 175.5 L 50.572266 169.5 L 54.035156 163.5 z M 77.035156 163.5 L 83.964844 163.5 L 87.427734 169.5 L 83.964844 175.5 L 77.035156 175.5 L 73.572266 169.5 L 77.035156 163.5 z M 100.03516 163.5 L 106.96484 163.5 L 110.42773 169.5 L 106.96484 175.5 L 100.03516 175.5 L 96.572266 169.5 L 100.03516 163.5 z M 123.03711 163.5 L 129.96484 163.5 L 133.42773 169.5 L 129.96484 175.5 L 123.03711 175.5 L 119.57227 169.5 L 123.03711 163.5 z M 146.03516 163.5 L 152.96484 163.5 L 156.42773 169.5 L 152.96484 175.5 L 146.03516 175.5 L 142.57227 169.5 L 146.03516 163.5 z M 169.03711 163.5 L 175.96484 163.5 L 179.42773 169.5 L 175.96484 175.5 L 169.03711 175.5 L 165.57227 169.5 L 169.03711 163.5 z M 192.03711 163.5 L 198.96484 163.5 L 202.42773 169.5 L 198.96484 175.5 L 192.03711 175.5 L 188.57227 169.5 L 192.03711 163.5 z M 215.03711 163.5 L 221.96484 163.5 L 225.42773 169.5 L 221.96484 175.5 L 215.03711 175.5 L 211.57227 169.5 L 215.03711 163.5 z M 238.03711 163.5 L 244.96484 163.5 L 248.42773 169.5 L 244.96484 175.5 L 238.03711 175.5 L 234.57227 169.5 L 238.03711 163.5 z M 261.03711 163.5 L 267.96484 163.5 L 271.42773 169.5 L 267.96484 175.5 L 261.03711 175.5 L 257.57227 169.5 L 261.03711 163.5 z M 284.03711 163.5 L 290.96484 163.5 L 294.42773 169.5 L 290.96484 175.5 L 284.03711 175.5 L 280.57227 169.5 L 284.03711 163.5 z M 19.535156 170.25 L 26.464844 170.25 L 29.927734 176.25 L 26.464844 182.25 L 19.535156 182.25 L 16.072266 176.25 L 19.535156 170.25 z M 42.535156 170.25 L 49.464844 170.25 L 52.927734 176.25 L 49.464844 182.25 L 42.535156 182.25 L 39.072266 176.25 L 42.535156 170.25 z M 65.535156 170.25 L 72.464844 170.25 L 75.927734 176.25 L 72.464844 182.25 L 65.535156 182.25 L 62.072266 176.25 L 65.535156 170.25 z M 88.535156 170.25 L 95.464844 170.25 L 98.927734 176.25 L 95.464844 182.25 L 88.535156 182.25 L 85.072266 176.25 L 88.535156 170.25 z M 111.53516 170.25 L 118.46484 170.25 L 121.92773 176.25 L 118.46484 182.25 L 111.53516 182.25 L 108.07227 176.25 L 111.53516 170.25 z M 134.53516 170.25 L 141.46484 170.25 L 144.92773 176.25 L 141.46484 182.25 L 134.53516 182.25 L 131.07227 176.25 L 134.53516 170.25 z M 157.53711 170.25 L 164.46484 170.25 L 167.92773 176.25 L 164.46484 182.25 L 157.53711 182.25 L 154.07227 176.25 L 157.53711 170.25 z M 180.53516 170.25 L 187.46484 170.25 L 190.92773 176.25 L 187.46484 182.25 L 180.53516 182.25 L 177.07227 176.25 L 180.53516 170.25 z M 203.53711 170.25 L 210.46484 170.25 L 213.92773 176.25 L 210.46484 182.25 L 203.53711 182.25 L 200.07227 176.25 L 203.53711 170.25 z M 226.53711 170.25 L 233.46484 170.25 L 236.92773 176.25 L 233.46484 182.25 L 226.53711 182.25 L 223.07227 176.25 L 226.53711 170.25 z M 249.53711 170.25 L 256.46484 170.25 L 259.92773 176.25 L 256.46484 182.25 L 249.53711 182.25 L 246.07227 176.25 L 249.53711 170.25 z M 272.53711 170.25 L 279.46484 170.25 L 282.92773 176.25 L 279.46484 182.25 L 272.53711 182.25 L 269.07227 176.25 L 272.53711 170.25 z "
       transform="scale(0.26458333)" />
  </g>
  <g
     inkscape:groupmode="layer"
     id="layer2"
     inkscape:label="Layer 2"
     style="display:inline">
    <rect
       style="fill:#0000ff;stroke-width:0.264583"
       id="rect3197-3-6-95-5"
       width="1.8330871"
       height="0.39687404"
       x="81.89608"
       y="0.28018144" />
  </g>
</svg>
